<?xml version="1.0" encoding="UTF-8"?>
<svg id="Layer_2" data-name="Layer 2" xmlns="http://www.w3.org/2000/svg" viewBox="0 0 800 683.23">
  <g id="Object">
    <path d="m737.38,255.64c-13.79,1.02-62.14,6.17-65.1,21.57-3.67,19.08,43.39,9.55,36.78,25.83-6.68,16.44-52.43,4.33-56.16,27.08,20.48,7.24,52.4,3.35,74.37,4.32,22.14.98,43.93,2.46,66.23,1.91,1.88-.05,4.09-.07,6.5-.1v-81.02c-20.94-.53-42-1.12-62.62.4Z" style="fill: #eae6eb; stroke-width: 0px;"/>
    <path d="m409.05,255.29c-42.11-1.45-92.46-5.17-133.29,3.56,4.56,23.55-37.56,16.34-50.71,16.34-8.31,0-38.76,5.43-45.01-3.26-6.61-9.18,4.78-9.28,8.54-16.66,3.9-7.66,8.85-5.38.71-11.55-7.76-5.88-28.01-1.7-37.04-1.71-34.77-.04-76.36,1.66-107.32,1.66-5.63-.71-25.02-1.86-44.92-1.09v25.54c9.52-.56,17.53-1.23,20.9-1.23,17.43.04,57.97-9.53,70.52,2.86-8.65,5.36-51.6,4.4-45.04,18.75,5.95,13.02,46.7,11.06,58.08,11.54,8.98.37,50.15-.62,48.47,13.32-1.93,15.94-55.91,8.25-58.46,25.83-4.75,32.71,204.69,41.28,217.31,7.59-15.41-.92-111.22,9.72-110.99-3.57.37-21.07,73.64-18.85,86.7-19.86,25.88-1.99,51.15-3.4,77.25-3.36,11.6.02,48.75,2.77,56-8.97,12.59-20.4-59.18-17.32-67.07-17.83,4.54-23.51,58.78-11.37,75.23-22.15,20.11-13.17-5.78-15.27-19.85-15.75Z" style="fill: #eae6eb; stroke-width: 0px;"/>
    <path d="m464.09,4.21c-20.43,28.36,24.78,19.86,25.66,38.36.91,19.23-126.26,11.37-144.05,25.82-20.68,16.79,25.73,13.97,37.61,14.58,35.28,1.79,70.91,1.49,106.26,1.55,11.71.02,90.01-12.59,93.68,2.36,4.51,18.37-58.07,9.04-59.69,29.59,26.89,8.95,66.96,1.94,95.27,1.93,27.54,0,62.15,2.41,88.46-7.27,36.32-13.37-9.29-18.66-21.9-26.6-28.22-17.78,32.84-16.32,43.94-15.39,11.96,1,47.56.75,49.23,20.15,1.52,17.65-34.9,28.52-47.16,31.98-4.6,1.3-38.74,3.24-26.33,14.76,8.13,7.55,69.27-1.13,81.18-1.49,3.74-.11,8.64-.05,13.76-.35V0h-332.08c-1.43,1.26-2.72,2.65-3.84,4.21Z" style="fill: #eae6eb; stroke-width: 0px;"/>
    <path d="m214.57,631.31c-57.16,2.71-125.13,21.82-181.1,3.64,1.37-11.58,20.97-20.57,8.61-29.25-7.14-5.01-26.46-3.13-42.08.67v76.73c6.76.51,14.58-.61,22.62-.61,21.3,0,41.89.05,61.55-3.93,22-4.46,60.94,7.07,78.64-5.81-3.63-7.66-11.14-9.68-19.47-12.38,23.1-20.13,70.56,4.92,93.27-16.06,17.34-16.01-8.92-13.61-22.04-12.99Z" style="fill: #eae6eb; stroke-width: 0px;"/>
  </g>
</svg>