<?xml version="1.0" encoding="UTF-8"?>
<svg id="Layer_2" data-name="Layer 2" xmlns="http://www.w3.org/2000/svg" viewBox="0 0 204.61 208.26">
  <g id="Object">
    <g>
      <path d="m65.18,42.41c0-15.07,3.13-29.41,8.77-42.41C31.05,13.82,0,54.06,0,101.57c0,58.92,47.77,106.69,106.69,106.69,43.85,0,81.52-26.46,97.92-64.28-10.32,3.32-21.32,5.13-32.74,5.13-58.92,0-106.69-47.77-106.69-106.69Z" style="fill: #f1cc78; stroke-width: 0px;"/>
      <path d="m53.42,9.05C32.93,28.49,20.14,55.98,20.14,86.46c0,58.92,47.77,106.69,106.69,106.69,19.46,0,37.71-5.22,53.42-14.32-19.13,18.15-44.97,29.28-73.42,29.28C47.91,208.11.15,160.34.15,101.42.15,61.96,21.57,27.51,53.42,9.05Z" style="fill: #e3c071; stroke-width: 0px;"/>
      <g>
        <path d="m41.14,60.26c-1.27,2.52-1.13,4.83-1.2,7.56-.07,2.99-4.55,3.75-5.32.72-.92-3.61.38-7.66,2.36-10.71,1.69-2.6,5.56-.34,4.16,2.43Z" style="fill: #e3c071; stroke-width: 0px;"/>
        <path d="m37.54,95.41c-.99-1.83-1.43-3.71-1.89-5.72-.73-3.18,4.04-4.53,4.9-1.35.54,1.99,1.08,3.9,1.06,5.97-.02,2.12-3.02,3.05-4.08,1.1Z" style="fill: #e3c071; stroke-width: 0px;"/>
        <path d="m46.34,105.9c1.26-.67,3.35-.45,4,1.05.63,1.45,1.49,2.83,2.41,4.11.77,1.07.27,2.68-.68,3.42-1.1.85-2.46.66-3.48-.21-1.43-1.2-2.49-2.69-3.3-4.37-.66-1.38-.43-3.22,1.05-4Z" style="fill: #e3c071; stroke-width: 0px;"/>
        <path d="m61.62,129.01c-.48-.22-.99-.41-1.45-.66-.46-.25-.89-.58-1.33-.87-1.15-.77-1.76-2.38-.95-3.63.74-1.15,2.39-1.77,3.63-.95.6.4,1.22.78,1.77,1.25.42.36.81.75,1.22,1.13.87.81.88,2.22.19,3.12-.77,1-1.97,1.11-3.07.61Z" style="fill: #e3c071; stroke-width: 0px;"/>
        <path d="m60.21,134.34c2.93,1.43,5.66,3.5,8.4,5.26,2.92,1.88.24,6.53-2.73,4.67-2.98-1.86-6.14-3.58-8.88-5.77-2.48-1.99.68-5.41,3.21-4.17Z" style="fill: #e3c071; stroke-width: 0px;"/>
        <path d="m40.67,117.25c-.02,1.87.24,3.76.98,5.5.72,1.69.39,3.59-1.48,4.38-1.83.77-3.49-.28-4.17-2-.99-2.5-1.43-5.19-1.35-7.88.12-3.86,6.05-3.89,6.02,0Z" style="fill: #e3c071; stroke-width: 0px;"/>
        <path d="m56.63,151.24c1.14.92,2.28,1.84,3.41,2.76,1.49,1.2-.47,3.76-2.05,2.66-1.2-.84-2.41-1.67-3.61-2.51-.91-.63-1.24-1.8-.52-2.73.73-.94,1.91-.89,2.77-.19Z" style="fill: #e3c071; stroke-width: 0px;"/>
        <path d="m74.3,165.68c1.42.17,2.82.35,4.22.65,1.25.27,2,1.62,1.84,2.82-.16,1.23-1.24,2.26-2.52,2.23-1.19-.03-2.35-.15-3.53-.29-1.4-.17-2.78-1.12-2.71-2.71.06-1.32,1.2-2.89,2.71-2.71Z" style="fill: #e3c071; stroke-width: 0px;"/>
        <path d="m115.32,171.35c1.91.04,3.82.09,5.73.13,2.37.06,3.1,3.82.58,4.3-1.86.35-3.72.7-5.57,1.05-1.64.31-3.24-.56-3.48-2.32-.22-1.61,1.04-3.2,2.74-3.16Z" style="fill: #e3c071; stroke-width: 0px;"/>
        <path d="m140.66,172.07c2.14-.82,4.6-1.73,6.88-1.94,2.46-.23,2.86,3.12,1.16,4.28-.94.64-2.11,1.01-3.15,1.46-1.15.49-2.28.97-3.46,1.37-1.37.46-2.93-.53-3.3-1.87-.42-1.51.52-2.77,1.87-3.3Z" style="fill: #e3c071; stroke-width: 0px;"/>
        <path d="m154.26,167.79c2.25-.79,4.55-1.44,6.69-2.54,3.62-1.86,6.82,3.54,3.2,5.48-2.88,1.54-5.82,2.69-9.1,2.86-3.49.18-3.78-4.75-.78-5.8Z" style="fill: #e3c071; stroke-width: 0px;"/>
        <path d="m118.86,181.31c2.64-.21,5.3-.11,7.94-.11,4.01,0,4.02,6.23,0,6.23-2.64,0-5.31.1-7.94-.11-3.86-.31-3.87-5.7,0-6.02Z" style="fill: #e3c071; stroke-width: 0px;"/>
        <path d="m88.85,156c2.69-.14,5.27.12,7.94.39,1.97.2,3.66,1.54,3.66,3.66,0,1.79-1.69,3.9-3.66,3.66-2.98-.36-5.89-.68-8.79-1.49-3.53-.98-2.69-6.05.84-6.23Z" style="fill: #e3c071; stroke-width: 0px;"/>
        <path d="m77.81,148.31c-.67-.45-1.17-.95-1.71-1.52-.88-.94-1.2-2.51-.47-3.65.68-1.06,2.12-1.85,3.4-1.38.71.26,1.45.49,2.1.88.48.3.95.62,1.42.93,1.43.94,2.17,2.94,1.18,4.49-.92,1.43-2.96,2.19-4.49,1.18-.47-.31-.95-.62-1.42-.93Z" style="fill: #e3c071; stroke-width: 0px;"/>
        <path d="m80.51,132.11c-1.28-.66-2.27-1.03-4.03-1.42-1.73-.39-2.91-2.49-2.37-4.17.6-1.86,2.3-2.72,4.17-2.37,2.01.38,3.9,1.08,5.74,1.96,1.64.79,2.21,3.26,1.25,4.75-1.06,1.65-3.02,2.14-4.75,1.25Z" style="fill: #e3c071; stroke-width: 0px;"/>
        <path d="m99.09,173.08c1.05.72,2.16,1.23,3.44,1.36,1.31.13,2.43,1.03,2.43,2.43,0,1.31-1.11,2.45-2.43,2.43-2.17-.03-4.24-.58-6.17-1.55-1.31-.66-1.68-2.5-.97-3.7.7-1.19,2.49-1.8,3.7-.97Z" style="fill: #e3c071; stroke-width: 0px;"/>
        <path d="m62.35,105.34c-1.32.77-2.68.19-3.52-.92-1.91-2.52-3.8-5.99-3.54-9.23.24-3.04,4.14-3.53,5.21-.71.96,2.55,1.28,4.98,2.77,7.34.74,1.18.25,2.83-.92,3.52Z" style="fill: #e3c071; stroke-width: 0px;"/>
        <path d="m53.11,64.59c1.4.06,2.19,1.04,2.35,2.35.11.88.22,1.77.33,2.65.08.63-.36,1.47-.78,1.89-.46.46-1.23.81-1.89.78-1.3-.06-2.86-1.19-2.68-2.68.11-.88.22-1.77.33-2.65.08-.65.21-1.18.69-1.66.41-.41,1.08-.71,1.66-.69Z" style="fill: #e3c071; stroke-width: 0px;"/>
        <path d="m51.53,38.96c-.59-.64-.64-1.64,0-2.28l.44-.44c.6-.6,1.69-.64,2.28,0,.59.64.64,1.64,0,2.28-.15.15-.29.29-.44.44-.6.6-1.69.64-2.28,0Z" style="fill: #e3c071; stroke-width: 0px;"/>
        <path d="m55.33,24.16c-.91.95-2.65.99-3.56,0-.9-.99-1.02-2.59,0-3.56,1.2-1.15,2.47-2.24,3.72-3.34.88-.77,2.32-.93,3.17,0,.87.94.83,2.23,0,3.17-1.1,1.25-2.18,2.52-3.34,3.72Z" style="fill: #e3c071; stroke-width: 0px;"/>
        <path d="m35.99,45.86c-.23-.46-.35-.91-.35-1.42,0-1.06.93-2.07,2.02-2.02,1.1.05,2.02.89,2.02,2.02,0,.51-.12.97-.35,1.42-.64,1.27-2.71,1.27-3.35,0Z" style="fill: #e3c071; stroke-width: 0px;"/>
        <path d="m23.87,99.16c.01-1.44,1.26-2.83,2.76-2.76,1.51.07,2.75,1.21,2.76,2.76,0,1.03.02,2.06.03,3.09.01,1.46-1.29,2.86-2.79,2.79-1.5-.07-2.8-1.23-2.79-2.79,0-1.03.02-2.06.03-3.09Z" style="fill: #e3c071; stroke-width: 0px;"/>
        <path d="m42.46,136.92c.43-.23.9-.36,1.39-.38.6-.03,1.57.31,1.95.81.19.25.38.49.57.74.32.42.5.83.69,1.33.24.63.07,1.66-.29,2.21-.34.53-.79.93-1.37,1.17-1.34.57-2.8.04-3.59-1.17-.31-.48-.47-1.05-.63-1.59-.32-1.13.2-2.56,1.27-3.12Z" style="fill: #e3c071; stroke-width: 0px;"/>
      </g>
    </g>
  </g>
</svg>