<?xml version="1.0" encoding="UTF-8"?>
<svg id="Layer_2" data-name="Layer 2" xmlns="http://www.w3.org/2000/svg" xmlns:xlink="http://www.w3.org/1999/xlink" viewBox="0 0 800 1100">
  <defs>
    <linearGradient id="linear-gradient" x1="400" y1="868.59" x2="400" y2="0" gradientUnits="userSpaceOnUse">
      <stop offset="0" stop-color="#eee2c5"/>
      <stop offset="1" stop-color="#b09fb5"/>
    </linearGradient>
  </defs>
  <g id="BG">
    <rect x="0" width="800" height="868.59" style="fill: url(#linear-gradient); stroke-width: 0px;"/>
    <rect x="0" y="926.02" width="800" height="173.98" style="fill: #253e5e; stroke-width: 0px;"/>
  </g>
  <g id="Object">
    <path d="m312.1,1045.75c-18.92-7.71-40.11-12.04-59.62-18.15-20.77-6.51-41.22-15.34-63.28-15.82-15.33-.33-32.65,4.29-47.41-.63-11.9-3.96-19.3-14.59-28.53-22.45-10.45-8.91-20.85-8.22-32.17-14.62-8.96-5.07-17.67-12.09-26.39-17.72-11.47-7.41-34.58-34.47-50.94-25.7-1.31-.18-2.57.36-3.75,1.38v61.25c.12.06.22.13.34.18,7.07,3.51,21.42.07,26.68,4.83,8.3,7.51-1.84,23.31-5.34,30.59-31.04,64.43,68.39,23.66,92.8,36.04,6.07,3.08,8.58,10.08,13.39,14.1,4.84,4.03,12.66,6.74,18.68,8.24,8.44,2.09,16.87.88,25.61,1.39,10.44.6,10.84,5.09,19.76,9.46l45.61,1.9c19.89-5.15,39.71,1.56,59.28-6.88,9.55-4.11,22.32-12.03,28.73-20.81,9.98-13.67-1.25-21.58-13.46-26.55Z" style="fill: #4b4d5c; stroke-width: 0px;"/>
    <path d="m452.66,1004.22c-7.01-10.98-12.8-13.65-25.74-15.94-15.92-2.82-32.23-.89-48.36-1.55-18.31-.75-36.77-1.72-55.09-1.86-24.97-.2-65.25,9.08-77.35-17.76-10.17-22.56-26.81-18.38-49.83-18.33-34.53.07-68.79-4.79-102.8-10.31-16.71-2.71-30.7-9.32-46.43-14.58-8.24-2.76-27.99-6.57-31.7,1.5-7.46-3.06-12.58,1.78-15.36,9.37v29.81c.95,2.35,2.17,4.32,3.66,5.7,13.33,12.32,38.51,3.41,49.74,18.54,8.44,11.37-5.52,23.94-4.92,36.29.79,16.46,12.89,17.42,26.99,17.31,26.04-.2,51.89-3.24,78.05-2.96,22.16.24,13.92,17.51,28.7,27.94,17.08,12.05,47.17,9.42,66.56,7.63,17.73-1.64,34.28-4.6,52.17-2.51,18.33,2.14,35.24,10.29,53.6,11.72,31.99,2.49,65.58-10.37,90.21-30.4,19.77-16.08,20.92-29.21,7.9-49.6Z" style="fill: #454754; stroke-width: 0px;"/>
    <path d="m786.96,884.91c-2.91-7.79-6.31-10.34-14.3-11.82-27.72-5.13-59.08,1.73-87.31-.73-53.58-4.67-103.75-16.72-158.44-11.51-53.88,5.14-107.54,14.12-161.8,14.37-43.29.19-86.32-1.28-129.54-2.21-52.17-1.12-105.55-8.33-157.65-5.15-17.03,1.04-34.84,7.96-51.95,6.3-7.25-.7-12.77-5.09-19.7-6.3-1.64-.29-3.86-.59-6.26-.76v91.58c21.61,1.98,42.01,1.86,46.12,2.15,33.84,2.39,67.29,3.08,101.27,2.98,11.74-.03,29.64-1.59,40.06,5.31,9.98,6.6,4.81,9.99,5.15,18.73.63,16.23,17.21,14.18,31.57,13.17,16.97-1.2,33.86-5.99,50.94-7.62,25.98-2.48,52.87-.88,78.89.05,26.02.93,48.9,6.05,74.39,9.63,23.63,3.32,48.1,2.27,71.89,4.07,28.79,2.18,61.08-1.47,88.2-11.56,8.74-3.26,18.72-5.71,20.07-15.03.97-6.68-7.9-12.36-7.62-18.28,1.25-25.84,90.62-13.88,109.88-16.47,12.82-1.72,41.34-2.89,50.74-12.88,5.4-5.73,3.51-15.31,9.91-21.49,10.13-9.78,22.11-8.78,15.48-26.52Z" style="fill: #253e5e; stroke-width: 0px;"/>
    <path d="m75.19,912.75c-.77,27.21,45.04,24.16,61.08,24.25,33.7.19,70.23-6.22,103.23,3.12,7.34,2.08,15.78,4.24,20.56,11.55,4.09,6.25.45,12.54,3.01,18.43,4.76,10.97,21.3,8.51,29.97,8.19,21.62-.8,42.39-4.15,64.23-4.17,49.54-.05,96.3,14.89,145.4,18.86,15.99,1.29,34.51,2.71,50.49-.23,17.66-3.25,21.41-13.64,29.05-28.73,16.44-32.47,54.12-32.92,84.25-33.22,21.46-.22,43.16,1.43,61.7-11.54,10.67-7.47,22.15-10.69,33.28-17.07,9.6-5.5,15.79-10.58,15.22-22.76-5.99-2.01-11.76-.68-18.19-.1-17.45,1.57-32.06-.51-49.05-4.18-33.46-7.23-66.01-10.88-100.11-12.14-46.31-1.71-92.5,6.61-138.75,8.14-57.27,1.89-114.31,6.36-171.42,9.07-39.56,1.88-77.98,10.4-115.45-3.89-18.42-7.03-33.26-12.1-53.32-10.53-11.55.91-30.68,3.61-39.68,11.21-1.34-.22-2.52,1.92-3.27,2.78-1.94,2.21-3.93,4.41-5.78,6.71-1.69,2.1-3.16,4.59-4.36,7.03-1,2.02-1.14,4.12-1.7,6.28-1.13,4.34-.27,8.59-.39,12.95Z" style="fill: #4f5c67; stroke-width: 0px;"/>
    <g>
      <path d="m230.04,726.42c2.88-4.61,9.24-7.56,13.03-11.74,6-6.62,7.71-14,10.24-22.39,2.27-7.53,5.53-14.7,7.35-22.38,1.59-6.72.89-14.77,3.34-21.1,3.66,2.32,6.19,12.74,7.96,17.21,2.54,6.4,5.02,12.91,8.07,18.98,1.2,2.38,3.74,11.08,6.07,12.23,3.1,1.52,6.53-4.99,8.68-7.47,4.51-5.22,8.27-9.07,11.04-15.71,2.9-6.96,4.76-13.63,8.32-20.3,7.59-14.25,4.67-33.14,9.83-48.57,3.39,6.87,2.88,16.83,4.41,24.38,1.71,8.41,4.94,16.52,7.04,24.85,1.56,6.19,3.61,12,5.68,17.94,1.6,4.61,2.05,12.94,5.27,16.56,7.91,8.88,14.28-15.88,15.91-21.35,2.68-9.03.99-18.61,2.62-27.82,1.36-7.71,4.07-15.16,5.32-22.92,2.06,6.8,4.62,17.1,6.99,25.02,2.01,6.71,3.01,21.16,8.55,26.22,2.51,2.29,6.47,2.01,9.22,4.59,1.1,1.03,2.41,2.7,3.62,3.83,1.57,1.47,3.84,1.86,4.98,4.02,2.41,4.57.6,14.76.19,19.77-1.13,13.72-4.58,24.26-13.05,35.17-9.11,11.74-17.72,22.69-21.25,37.6-2.29,9.68-5.1,18.51-8.9,27.63-5.07,12.16-9.78,22-23.14,12.08-6.23-4.62-10.78-12.27-16.67-17.5-5.55-4.92-11.4-9.56-17-14.44-10.62-9.27-22.95-19.36-34.88-26.63-12.17-7.41-26.14-14.99-38.82-27.77Z" style="fill: #2b5175; stroke-width: 0px;"/>
      <path d="m226.92,733.52c5.9-5.07,12.8-12.71,16.64-22.04,2.09-5.08,4.15-8.56,6.86-13.25,2.23-3.86,2.59-10.17,5.38-13.04.31,13.86,3.75,31.56,9.68,44.09,3.18-.67,5.54-5.85,7.82-8.39,5.42-6.02,4.98-4.67,11.24-3.63,4.42.73,15.81-.55,17.76-3.74,1.57-2.57,1.43-8.33,2.99-11.49.84-1.71,1.57-3.1,2.74-4.53,3.46-4.22,9.46-5.27,12.88-9.13,1.37-1.54,1.05-3.87,2.34-5.78,2.41-3.59,5.08-5.03,7.16-9.52,1.58-3.42,4.2-7.15,3.87-11.12-.48,9.05,1.38,21.61,4.13,31.11.89,3.05.78,7.66,2.32,10.39.61,1.07,3.14,2.34,3.36,2.89,1.15,2.83-.61,8.91,2.15,10.92,6.62,4.84,10.12-20.43,10.48-24.89.67-8.42,10.63-15.57,9.62-23.5,2.53,4.82,6.33,10.95,7.68,16.62,1.43,6-.69,16.83,4.73,21.29,9.93,8.16,13.74-11.2,18.45-15.4,2.38,2.11,1.38,6.69,2.01,9.79.53,2.59,1.54,4.54,2.02,7.05,1.76,9.29-6.39,16.31-6.93,25.38-.94,15.58-13.95,29.42-19.05,44.41-2.68,7.86-5.69,15.31-7.03,23.52-1.09,6.66-1.8,10.78-6.25,15.8-7.18,8.11-16.81,10.3-25.07,2.89-8.73-7.83-17.85-15.39-26.8-22.97-5.63-4.77-9.9-10.8-15.35-15.71-4.48-4.03-9.26-5.64-14.48-8.4-7.25-3.84-15.28-10.09-21.91-15.05-4.97-3.72-10.13-8.29-14.89-12.34-4.53-3.85-12.73-8.28-16.58-12.23Z" style="fill: #3b506d; stroke-width: 0px;"/>
      <path d="m261.94,690.86c-4.15,8.79-9,17.43-3.04,27.26-.17-6.91,3.84-11.59,4.89-17.68.76-4.39-1.67-7.42-1.86-9.57Z" style="fill: #58748c; stroke-width: 0px;"/>
      <path d="m276.93,699.09c-.01,3.52,1.8,6.49,2.47,9.9.6,3.07-.06,6.25.56,9.27.94,4.54,4.55,6.59,6.58,9.99-1.34-4.53-2.71-17.72-2.68-20.49-1.44-2.32-4.41-6.63-6.93-8.68Z" style="fill: #58748c; stroke-width: 0px;"/>
      <path d="m310.82,678.33c-2.89,5.02-6.97,12.11-2.5,17.18,1.37-4.77.77-10.84,3-15.61l-.5-1.58Z" style="fill: #58748c; stroke-width: 0px;"/>
      <path d="m325.8,645.75c-.14,6.85,2.42,10.15,4.9,16.17,2.55,6.18,2.95,13.96,4.59,20.64,2.93,11.92.15,27.08-3.06,38.76,5.55-5.61,4.45-17.14,5.08-24.64.54-6.44,3.24-13.25,3.01-19.52-.27-7.24-5.15-15.73-9.07-21.5-3.66-5.39-5.3-9.7-5.45-9.91Z" style="fill: #58748c; stroke-width: 0px;"/>
      <path d="m370.25,655.21c-4.97,7.92-10.87,17.22-7.73,26.6,1.59,4.73,1.94,8.44,1.44,13.53-.26,2.71-1.63,5.23.29,7.13,4.17-8.3,4.85-19.13,6.49-28.42,1.27-7.23-.26-13.17-.5-18.84Z" style="fill: #58748c; stroke-width: 0px;"/>
      <path d="m374.25,676.23c-.63,11.78,12.67,12.74,14.04,23.54.51,4.02-.71,8.37-.08,12.38.37,2.4,1.94,3.99,1.42,6.64-4.14-7.5-9.43-15.77-13.16-23.85-2.88-6.25-2.72-11.28-2.22-18.72Z" style="fill: #58748c; stroke-width: 0px;"/>
      <path d="m321.87,723.75c-1.3-12.1,3.06-24,1.5-36.06-.77-5.95-1.43-14.36-4.02-19.86-1.32-2.8-4.47-5.79-4.91-7.5-2.21,3.81,1.62,13.4.94,17.12-.79,4.36-3.95,8.04-4.54,12.5-.47,3.57,1.25,7-.09,10.42-1.92,4.9-8.24,7.1-10.94,11.56-2.16,3.58-4.05,10.34-3.03,14.67.2.86,2.9,10.67,3.77,11.09,1.31.64,3.42-2.14,4.62-2.4,2.72-.6,4.5.11,6.98.99,4.38,1.55,8.29,3.53,11.05,7.37,2.23,3.1,2.88,7.42,7.13,8.22,4.09-9.25-7.51-19.07-8.48-28.11Z" style="fill: #58748c; stroke-width: 0px;"/>
      <path d="m347.28,705.14c.03,4.12,3.8,6.2,4.99,9.89,2.01,6.26-.6,13.36-1.52,19.52-1.1,7.39-.76,14.58-.43,21.98,13-10.52,12.97-32.71,5.04-46.53-4.28-7.46-12.64-16.78-12.58-26.26-.07,7.89,3.28,16.02,4.49,21.4Z" style="fill: #58748c; stroke-width: 0px;"/>
      <path d="m265.37,666.24c.16,4.77,2.7,8.34,4.05,12.61,1.36,4.33.34,7.32-.07,11.56-.49,5.11,1.49,11.09.13,15.72-2.51-12.83-4.1-25.75-4.1-39.9Z" style="fill: #58748c; stroke-width: 0px;"/>
    </g>
    <g>
      <path d="m420.03,615.18c-.4-4.37,3.27-13.79,5.3-18.33,4.38-9.82,13.74-13.08,19.34-22.01,5.78-9.22,6.81-20.64,12.35-30.07,5.57-9.5,13.73-19.35,17.73-29.74,4.18-10.87,6.16-23.03,9.98-34.12,3.74-10.87,10.4-18.65,16.94-27.53,8.93-12.11,16.41-23.72,22.62-37.5.58,11.48-5.47,24.51-8.54,35.36-2.38,8.42-5.26,16.54-6.27,25.3-.79,6.89-.66,13.56-2.52,20.3-5.05,18.4-17.78,33.98-23.89,52.32-6.04,18.11-17.14,31.98-24.78,49.11-7.38,16.55-9.54,38.84-28.09,46.06-13.62,5.3-16.81-22.47-10.17-29.17Z" style="fill: #253e5e; stroke-width: 0px;"/>
      <g>
        <path d="m612.93,488.31c-.38-26.31,18.25-120.03,44.9-63.82,7.77,16.38,21.84,87.68,45.61,61.56,9.93,30.21,3.35,64.96,5.14,96.78,1.93,34.26,14.01,49.37,29.81,76.79,26.52,46.03,35.2,98.44,55.61,148.57,12.74,31.29-4.01,53.78-6.69,92.11-22.66-11.11.83-21.92-18.25-41.85-11.62-12.14-27.01-25.13-36.16-39.96-14.28-23.12-19.31-47.53-35.45-69.97-18.4-25.58-25.5-55.37-39.84-83.18-13.83-26.82-22.22-50.94-29.52-80.7-6.24-25.42-28.73-69.52-15.14-96.34Z" style="fill: #2a4c6e; stroke-width: 0px;"/>
        <g>
          <path d="m418.13,710.34c.61-12.35,19.67-42.04,26.68-58.12,9.58-21.97,17.65-43.24,25.11-66.29,9.66-29.86,21.13-58.9,32.48-86.43,11.84-28.72,5.92-63.72,18.15-91.02,5.73-12.78,17.68-21.89,24.11-35.17,6.55-13.51,7.39-27.62,13.56-41.53,9.89,11.09,7.76,32.97,11.86,48.52,4.25,16.14,10.52,28.81,17.45,43.51,6.22,13.18,11.75,26.81,20.48,37.59,13.34,16.48,11.52,18.64,18.95,42.75,5.68,18.44,14.94,38.58,21.55,57.33,9.29,26.32,17.21,50.41,25.26,78.42,7.61,26.47,11.51,49.68,30.88,65.43,13.27,10.8,29.21,16.55,38.01,35.25,12.65,26.87,5.37,45.14,26.84,65.71-27.1,32.7-82.75,32.44-118.15,32.88-47.8.61-91.36-20.37-140.18-17.85-37.96,1.96-122.7,44.59-154.45,5.09,4.9-27.96,29.6-55.45,39.69-82.84,5.56-15.12,9.88-32.68,21.74-33.23Z" style="fill: #2b5175; stroke-width: 0px;"/>
          <path d="m343.9,849.21c8.06-3,37.08-89.27,47.01-110.84,13.87-30.14,35.1-60.55,43.23-93.71,11.29-46.05,39.38-77.77,56.76-122.37,11.11-28.53,20.47-65.24,35.27-89.51-1.24,44.82-19.81,87.92-17.65,133.19,21.42,10.85,33.08,28.2,51.34,43.81,18.53,15.84,19.51,26.96,28.75,50,9.38,23.39,26.85,38.33,35.14,61.99,6.97,19.9,6.28,45.41,21.78,60.43,15.14,14.67,37.43,27.37,54.99,34.12,19.39,7.46,34.87,11.28,55.47,13.26-21.63,13.37-53.14,5.93-76.93,7.02-48.43,2.22-94.88,12.58-144.32,10.18-44.89-2.18-89.36-5.76-134.4-5.14-20.51.28-42.33,7.35-56.45,7.58Z" style="fill: #465c75; stroke-width: 0px;"/>
          <path d="m380.93,676.12c22.89,5.4,21.73-37.24,37.28-45.38,12.37-6.48,23.93,15.33,40.17,6.11,25.56-14.52,55.08-87.13,60.1-122.03,17.79,8.41,28.31,45.95,43.34,62.49,3.54-3.98,10.84-7.7,14.18-12.15,8.51,23.79,30.71,80.58,50.9,87.97,1.34-31.26-.95-63.22.62-94.51,10.34,20.74,14.51,34.93,29.92,49.44,6.45,6.07,13.96,11.08,19.17,19.54,15.03,24.4,18.53,27.93,40.57,39.58,26.5,14,25.71,56.2,42,85.13,13.28,23.58,33.7,48.93,38.91,77.17-9.33,8.87-22.06,5.94-33.04,6.92-28.69,2.56-57.26,3.84-85.95,5.85-60.14,4.21-119.25.75-179.26-2.09-64.74-3.06-129.44,11.91-193.86,7.32,11.14-37.46,39.48-68.56,50.13-111.36,6.27-25.19,10.65-46.14,24.81-59.98Z" style="fill: #cdbda2; stroke-width: 0px;"/>
          <path d="m301.98,868.04c19.6-30.82,42.01-60.4,59.88-92.87,15-27.25,26.47-47.35,51.17-56.07,30.3-10.7,55.08-29.62,73.63-65.75,8.98-17.49,16.07-22.61,27.44-36.41,7.14-8.66,12.66-26.37,22.58-26.29,6.53,53.64,8.76,132.93,62.08,118.29,20.89-5.74,14.4-28.98,15.28-55.5.94-28.25,6.96-55.3,9.77-83.23,8.1,14.12,15.64,35.75,21.8,52.79,2.95,8.14,8.21,45.85,15.84,50.25,7.9,4.56,14.95-8.86,22.13-9.87,7.29-1.03,16.25,3.41,22.56,8.17,30.7,23.13,42.35,65.32,63.92,100.22,13.41,21.7,49.73,112.91,10.49,126.12-91.2,30.71-181.02-37.42-274.07-37.44-68.28-.01-143.16,13.03-204.5,7.58Z" style="fill: #ccc8bf; stroke-width: 0px;"/>
        </g>
        <path d="m419.06,615.79c-7.91,10.12-12.96,22.41-19.75,33.33-5.75,9.25-14.75,15.2-18.62,25.48-4.58,12.18-13.5,21.77-17.65,34.06,6.28-4.12,16.78-15.57,24.57-15.21,3.28.15,4.27,2.74,8.07,2.08,3.31-.58,7.1-3.68,9.96-5.51,5.09-3.25,10.09-8.76,15.47-11,8.5-3.54,18.04-4.02,25.41-10.5,2.7-2.38,7.83-7.43,7.82-11.56-.01-3.42-3.85-5.72-4.9-8.67-2.97-8.36,5.17-21.86-1.05-28.41-3.67,7.17-10.98,13.52-17.66,7.5-3.48-3.13-9.09-13.24-9.03-18.4-1.35,2.7-1.59,6.33-2.65,6.83Z" style="fill: #baa599; stroke-width: 0px;"/>
        <path d="m444.4,647.04c1.65-.79,1.97-1.96,3.15-3.37,3.58-4.26,5.2-4.33,9.74-7.03,6.26-3.73,8.44-11.37,12.76-17.17,5.49-7.37,11.92-9.49,18.91-14.78,8.11-6.14,9.71-16.02,12.84-25.33,4.34-12.89,8.14-26.26,12.15-39.34,1.26-4.13,2.57-21.61,5.69-22.63,1.73,5.39-2.71,25.91,4,28.11,4.38,1.43,4.15-4.19,7.73-4.29,4.73-.12,8.73,8.67,9.95,12.36,2.39,7.2,2.22,14.32,5.47,21.29,2.44,5.24,5.84,7.43,8.78,11.89,2.48,3.77,2.21,8.78,3.75,12.95,1.41,3.8,3.35,6.53,4.1,10.64,1.54,8.39,2.35,24.14-4.51,30.07-8.13-10.18-17.34-34.66-33.14-31.58-9.36,1.82-13.09,12.77-18.62,19.52-4.52,5.52-7.08,5.56-13.61,5.41-16.14-.35-19.38,19.03-32.72,24.97-4.06,1.81-9.73,4.66-14.26,3.71-.2-3.57,2.03-13.91-2.19-15.4Z" style="fill: #baa599; stroke-width: 0px;"/>
        <path d="m617.2,639.84c.09-19.64,2.77-42.42,5.73-61.74.38-2.5,1.71-22.11,3.47-23.14,2.99-1.75,14.92,36.46,17.17,39.42,3.92,5.16,8.99,5.75,13.77,9.38,3.25,2.47,6.06,6.37,8.8,9.42,3.06,3.42,5.25,5.8,7.06,10.31,2.12,5.27,1.27,11.53,3.62,16.45,6.16,12.91,26.48,15.13,25.14,31.48-3.66,0-5.95-2.59-9.04-4.55-6.76-4.29-13.93-7.58-20.87-11.52-4.08-2.31-7.82-5.81-12.59-6.17-5.94-.45-8.46,1.96-14.47-.7-5.01-2.22-8.67-5.04-14.15-5.92-2.84-.46-5.98.04-8.83-.51-2.97-.58-5.46-.3-4.8-2.2Z" style="fill: #baa599; stroke-width: 0px;"/>
        <path d="m509.73,476.64c-1.34-1.12-.42-10.55-.41-13.11.03-10.86-.19-21.99,1.73-32.64,1.19-6.59,1.41-11.62,4.39-17.86,3.39-7.09,8.71-13.89,13.74-19.8,6.19-7.27,8.81-11.34,11.1-20.82,1.73-7.15,4.42-14.26,6.68-21.26,3-9.33,7.53-19.97,11.48-28.51,5.72,17.05,7.84,34.95,13.51,52.06,2.96,8.91,4.57,19.12,9.76,27.03,4.52,6.9,7.25,15.1,10.09,23.15,3.19,9.04,7.15,17.8,10.27,26.85,3.01,8.74,4.88,15.87,9.92,23.67,6.78,10.49,6.63,23.79,8.96,35.89,1.79,9.29,5.67,18.22,7.42,27.36-3.08-5.69-10.27-11.23-14.7-15.96-9.31-9.95-21.92-15.1-29.74-26.68-6.86-10.15-11.04-22.11-17.88-32.44-2.61-3.95-7.48-13.07-11.84-14.65-6.67,10-8.78,27.05-20.31,33.16-1.28-4.28-1.12-15.19-6.56-16.73-3.21-.91-7.22,5.12-10.3,6.9-2.52,1.45-5.08,2.62-7.3,4.38Z" style="fill: #253e5e; stroke-width: 0px;"/>
      </g>
      <path d="m611.02,466.33c.89-7.2,1.44-15.83,4.44-22.35,3.67-7.96,2.97-17.08,6.48-25.1,5.7-13.05,18.78-24.7,19.45-39.74,4.31,4.34,7.03,13.4,10.21,19.04,4.03,7.14,9.6,12.96,12.29,20.61,2.13,6.05,5.22,36.83,11.55,37.02,2.45-4.61,4.44-11.29,5.54-16.51,1.52,5.24,1.98,10.13,4.11,15.27.81,1.96,1.66,5.41,3.32,6.89,1.51,1.35,4.16.86,5.64,2.18,3.87,3.44,5,12.87,7.3,17.84,5.26,11.37,7.94,27.53,9.51,40.24.91,7.37,1.68,16.01.8,23.49-.29,2.45-.91,5.63-1.46,8.05-.75,3.26-1.27,8.35-2.4,11.21-1.17,2.97-1.63,3.68-4.62,2.52-3.37-1.31-6.14-8.25-8.04-11.01-4.01-5.81-7.45-11.4-10.83-17.69-2.83-5.28-5.81-9.4-9.25-13.85-3.33-4.31-5.35-11.09-9.65-14.32-3.68-2.76-9-.47-12.22-3.36-4.76-4.27-3.22-14.71-4.61-20.4-1.61-6.61-3.52-9.92-9.11-12.65-4.25-2.08-10.68,5.95-15.06,5.15-4.35-.79-9.38-10-13.4-12.54Z" style="fill: #253e5e; stroke-width: 0px;"/>
      <path d="m340.41,799.34c4.78,3.05,6.58-4.85,8.37-9.33,3.98-9.98,5.39-16.77,14.71-20.23,9.26-3.44,15.79-1.31,23.74,2.39,16.89,7.87,14.51,2.85,31.11-4.18,13.45-5.7,27.92.42,41.48-3.77,11.6-3.58,17.91-12.78,23.83-23.14,6.78-11.88,13.06-23.99,19.27-36.13,4.38-8.57,5.69-23.58,13.92-28.78,4.86,18.07,5.99,37.71,13.37,54.98,4.79,11.21,12.45,10.68,23.52,3.62,9.69-6.18,5.87-18.97,12.35-27.89,4.22-5.82,12.49-6.15,16.85-11.23,2.92-3.4,1.25-8.17,5.42-11.12,6.57,5.19,18.01,20.95,28.21,17.98,9.1-2.65,8.89-24.15,18.21-26.29,4.97-1.14,17,7.47,23.36,9.75,2.55.91,3.56-3.7,6.45-.77,3.52,3.57-1.58,22.54-2.16,27.3-1.24,10.19.3,24.19-6.79,32.04-1.95,2.15-14.87,6.76-16.26,7.47-10.38,5.27-20.54,10.79-30.11,17.58-38.13,27.04-75.36,56.16-121.51,67.04-26.21,6.18-53.15,8.18-79.66,12.67-25.34,4.29-60.69-20.42-67.67-49.97Z" style="fill: #2b5175; stroke-width: 0px;"/>
      <path d="m523.39,442.97c-.74,7.37-7.37,12.77-10.83,18.67-3.05,5.2-3.99,11.77-5.5,17.61-1.55,5.98-3.74,12.04-5.32,18.16-.83,3.22-3.58,8.72-2.23,11.65,7.23-16.24,16.13-31.53,21.65-48.38,3.55-10.83,5.04-21.94,8.31-32.8,1.18,3.95-4.53,10.67-6.07,15.09Z" style="fill: #ccc8bf; stroke-width: 0px;"/>
      <path d="m560.48,415.38c-.19,6.11.31,7.87,4.56,11.57,3.7,3.21,7.03,5.8,8.83,10.79,1.87,5.19,7.09,12.12,7.38,17.57.39-13.57-5.68-23.76-11.87-34.82-4.26-7.62-9.39-14.97-8.9-24.22,0,5.83.79,11.76,0,19.11Z" style="fill: #ccc8bf; stroke-width: 0px;"/>
      <path d="m542.68,443.49c-2.44,8.23-.26,20.39,3.33,28.1,1.7,3.64,4.17,6.11,5.22,10.03.77,2.84-.15,7.45,1.74,9.19,4.67-12.81-.34-21.52-4.11-33.06-2.94-8.98-3.7-17.7-3.7-27.14.3,5.11-2.18,9.88-2.47,12.88Z" style="fill: #ccc8bf; stroke-width: 0px;"/>
      <path d="m573.84,506.47c5.19,7.05,2.85,13.53,4.44,21.77.81,4.19,3.68,10.11,4.47,13.18-2.04-6.64-8.44-8.12-8.91-15.96-.31-5.12-.32-10-1.1-15.07-.58-3.79-2.28-7.86-1.77-11.71,1.33,1.62,2.33,3.98,2.87,7.79Z" style="fill: #ccc8bf; stroke-width: 0px;"/>
      <path d="m596.1,453.38c0,5.93-4.45,20.5.55,24.28-2.77-4.57-5.51-10.16-5.54-15.67-.03-6,1.34-11.46-1.01-17.28,2.28,2.75,3.43,6.73,5.99,8.67Z" style="fill: #ccc8bf; stroke-width: 0px;"/>
      <g>
        <path d="m608.02,490.73c-.42-.94.35-.45.44-.92l-1.48-1.04c.69,3.34.23,6.55,1.56,9.76.96,2.31,2.94,3.9,3.88,6.08-.54-5.24,1.03-10.59-4.4-13.89Z" style="fill: #ccc8bf; stroke-width: 0px;"/>
        <path d="m612.42,504.62c.09.92.25,1.84.52,2.74.04-1.04-.17-1.93-.52-2.74Z" style="fill: #ccc8bf; stroke-width: 0px;"/>
      </g>
      <path d="m577.79,468.48c-1.1,3.81-2.8,9.88-.93,13.58,2.07,4.11,3.93,3.81,4.01,9.33,2.9-4.81,1.26-11.7-.59-16.71-1.34-3.62-1.63-9.05-2.49-6.21Z" style="fill: #ccc8bf; stroke-width: 0px;"/>
      <path d="m528.83,499.71c.16,2.73-1.79,3.86-2.53,6.36-.83,2.77-.73,6.6-.35,9.42.45,3.37,1.31,9.52,3.25,12.13,4.58-7.75-1.01-20.89-.37-27.92Z" style="fill: #ccc8bf; stroke-width: 0px;"/>
      <path d="m485.3,511.16c-1.86,6.73-2.73,11.63-1.77,18.62.45,3.31-.25,10.51,2.16,12.57,2.27-6.32,1.54-14.28,2.09-20.98.48-5.86,1.75-11.57,1.4-17.46-1.39,1.52-2.39,4.03-3.87,7.26Z" style="fill: #ccc8bf; stroke-width: 0px;"/>
      <path d="m539.22,391.96c-4.74,7.17-11.66,12.48-16.27,19.15,11.22,1.39,18.48-13.26,18.26-23.15-.49,2.02-1.82,3.8-1.99,4Z" style="fill: #ccc8bf; stroke-width: 0px;"/>
      <path d="m684.3,527.62c2.62,5.79-.9,13.18,2.56,18.56,1.63,2.54,3.09,3.61,4.17,6.61.65,1.81,1.1,4.71,2.39,5.83.62-7.95-2.19-15.44-4.67-22.75-1.08-3.18-1.72-4.84-3.69-7.28-1.4-1.73-3.19-3.01-.75-.97Z" style="fill: #cdbda2; stroke-width: 0px;"/>
      <path d="m644.88,470.83c-.05,1.65.6,3.34.44,4.94-.31,3.09-2.26,5.43-2.72,8.55-.46,3.11-.03,7.55,2.7,9.33,1.32-2.95,3.19-10.53,2.48-13.98-.93-4.48-2.49-7.04-2.89-8.84Z" style="fill: #cdbda2; stroke-width: 0px;"/>
      <path d="m628.43,459.55c-7.88,2.66-8,14.33-3.04,20,.39-5.05.3-17.8,3.04-20Z" style="fill: #cdbda2; stroke-width: 0px;"/>
      <path d="m682.39,461.16c6.41,2.25,2.94,16.75,8.36,19.3.83-6.88-3.96-16.7-7.53-22.42-.25,1.29-.14,2.75-.83,3.12Z" style="fill: #cdbda2; stroke-width: 0px;"/>
      <path d="m668.61,503.45c-2.31,6.61-3.31,12.83,2.6,18.09.49-5.83-2.36-10.5-2.6-18.09Z" style="fill: #cdbda2; stroke-width: 0px;"/>
      <path d="m650.24,517.14c2.44,6.04.5,10.42,1.21,16.47,4.9-1.45,2.34-16.79-1.21-16.47Z" style="fill: #cdbda2; stroke-width: 0px;"/>
      <path d="m664.02,552.59c-1.34,2.84,2.96,3.78,4.65,5.07,2.71,2.06,4.19,4.39,5.01,7.82,3.87-5.28-5.21-12.19-7.1-16.5-1.5-3.43.32-18.35-4.03-19.29-.5,7.74.73,15.63,1.47,22.91Z" style="fill: #cdbda2; stroke-width: 0px;"/>
      <path d="m665.55,471.63c-.26,5.8,3.05,8.74,7.18,11.56,5.03,3.44,8.19,8.95,8.95,15.24.47,3.89.84,8.59-.08,12.42-.68,2.82-2.76,5.2-2.64,8.19-.01-4.71.43-9.66-1.29-14.13-1.78-4.6-4.88-9.08-7.31-13.31-3.69-6.42-4.01-11.63-4.8-19.98Z" style="fill: #cdbda2; stroke-width: 0px;"/>
      <path d="m632.64,430.96c.3,4.12-2.25,7.31-1.09,11.69.62,2.32,1.47,9.2,3.69,9.99,3.89-7.74-3.56-18.98.8-26.84-.72,1.88-2.38,4.94-3.4,5.15Z" style="fill: #cdbda2; stroke-width: 0px;"/>
    </g>
    <path d="m304.15,856.01c-1.23,7.18,56.72,2.9,35.49,23.32-3.04,2.92-21.6,8.79-19.53,15.62,1.82,6.02,33.91,2.58,38.31,2.98,8.48.77,29.86,1.11,32.49,12.8,1.72,7.64-12.06,19.58-6.37,26.63,2.32,2.88,16.92,6.37,20.64,7.3,11.21,2.8,22.43,4.96,33.64,8.01,21.39,5.82,43.32,6.2,65.34,7.22,18.45.86,33.99-1.07,50.1-11.05,41.32-25.61,82.04-26.78,128.62-26.84,13.7-.02,26.02-1.3,39.27-5.1,8.84-2.54,9.95-5.96,15.72-11.23,11.09-10.1,15.6-7.6,2.1-20.77,4.44-.5,11.69.53,14.54-3.51-9.65-9.59-33.38-11.94-45.92-13.12-21.92-2.07-43.17-4.24-64.45-11.46-51.11-17.33-104.62-1.22-156.99-1.59-18.67-.13-36.47-4.67-55.29-2.55-19.08,2.16-37.81,4.97-57.11,5.04-16.23.05-33.49,1.72-49.44-1.38-5.88-1.14-19.4-6.61-21.16-.32Z" style="fill: #395165; stroke-width: 0px;"/>
    <g>
      <path d="m780.07,727.27c-3.37-2.72-6.55-2.93-8.65-7.61-1.16-2.57-1.85-5.07-3.22-7.49-1.69-2.99-1.51-3.75-1.81-7.43-.19-2.35-.82-4.6-1.59-6.81-.42.57-.96,1.15-1.71,1.76-9.36,7.53-16.99-20.48-27.7-12.41-5.54,4.18-.6,19.66-6.47,23.36-2.6,1.64-7.61-4.36-9.88-6.01-3.61-2.62-11.83-9.16-16.12-8.82-1.14.09-2.3.58-3.48,1.35.25,1.23.72,2.49,1.51,3.89,2.22,3.93,3.27,6.48,4.9,10.75.27.71.6,1.37.95,2.02-1.05-3.14-2.14-6.48,1.43-8.4.42-.87.75-2.19,1.1-3.42-.6,4.67-.72,10.15-.25,15.46.78,1.18,1.54,2.38,2.15,3.73,1.42,3.14,3.43,5.07,4.95,8.01,4.05,7.83.19,16.87-.2,25.06-.16,3.33.32,7.43-.28,10.42,1.78,6.56,3.29,13,4.78,17.83,4.1,13.27,7.27,34.5,16.84,43.87,9,8.81,20.41,4.27,27.72-5.13,7.92-10.2,8.81-22.7,9.08-35.59-1.49-2.02-2.56-4.43-2.88-7.4-.57-5.32-.64-9.49-3.64-13.83-1.75-2.53-5.34-4.7-4.74-8.55.87,4.34,3.84,6.49,5.77,8.99,3.34,4.33,6.21,8.26,10.36,11.41,1.99,1.5,4.59,2.95,6.35,4.78,1.78,1.85,2.63,5.09,4.03,7.37,1.76,2.88,3.82,5.17,5.93,7.67,1.63,1.93,3.28,4.1,4.71,6.48v-57.8c-3.81-2.67-8.58-4.52-11.65-6.98-3.54-2.84-4.83-7.71-8.28-10.5Zm-40.21,61.14c-.35,2.47-.41,4.85-.42,7.3.04.58.05,1.15,0,1.73,0-.58,0-1.15,0-1.73-.41-5.74-5.29-11.65-6.8-16.81-.9-3.06-1.55-6.06-2.74-8.97-.77-1.89-2.18-3.81-2.27-5.96,3.03.07,8.43,9.35,9.79,9.76,2.13,5.12,3.3,8.59,2.45,14.68Zm-6.16-46.91c-1.78-2.8-3.77-5.54-5.51-8.36-2.29-3.72-1.72-5.85-2.32-10.12-.44-3.16-2.19-4.64-3.46-7.03,2.56-.05,5.16,4.28,6.33,6.95-.01,1.13-.16,2.44.01,3.55.48,3.06.41,2.28,2.44,3.45,3.5,2.02,5.31,3.18,6.83,7.94,1.31,4.11,1.93,9.17,2.48,13.6.05.26.09.52.1.78-.03-.25-.06-.52-.1-.78-.7-3.46-5.14-7.36-6.8-9.98Zm39.69-12.33c-6.85-4.99-11.97-13.67-14.88-22,5.7-.28,7.09,6.04,10.41,10.53,1.41,1.9,2.55,8.54,4.46,11.47.69.5,1.39.98,2.11,1.4-.81.1-1.5-.46-2.11-1.4Z" style="fill: #454754; stroke-width: 0px;"/>
      <path d="m541.47,753.89c.12-.43.3-.82.52-1.17-.35.39-.69.77-1.03,1.15.17,0,.34,0,.51.02Z" style="fill: #454754; stroke-width: 0px;"/>
      <path d="m697.77,717.83c0-4.29.15-8.61-.13-12.88-.13-1.86-.49-3.82-.7-5.77-4.96,4.73-9.76,13.16-12.7,17.05-7.43,9.84-13.64,21.46-21.39,30.86-3.29,3.99-8.44,11.23-12.89,12.32-.57-5.64,2.42-15.55,3.69-21.36,1.61-7.34,6.99-14.67,6-22.38-3.12-24.36-25.82,15.62-30.28,16.25-.04-.58-.05-1.17-.05-1.77-1.95,4.84-3.67,10.25-5.18,15.16-.75,2.45-1.54,6.04-2.72,9.16,2.98-1.64,5.84-3.5,8.25-6.32-2.57,15.06-9.64,26.66-6.53,42.28,1.45,7.3,1.72,9.89,6.25,12.2,3.6,1.83,7.81-.56,11.87,2.12,3.49,2.3,3.95,5.22,6.37,8.22,3.67,4.56,2.1,6.04,9.22,4.78,8.35-1.48,18.07-7.71,24.03-14.68,7.58-8.86,9.62-21.92,12.95-33.55,2.79-9.76,7.81-18.36,11.16-27.48-.85-1.22-1.75-2.42-2.73-3.59-4.46-5.34-4.5-13.18-4.5-20.63Zm-51.18,38.02c-.91-3.96.47-8.84-.21-13.15-.59-3.74-4.37-10.8-.01-13.47.38-.67,2.61-3.99,4.29-7.27-1.04,4.28-.47,8.87-1.75,13.3-2,6.87-.6,13.77-2.32,20.59Zm37-7.83c-1.71,6.42-2.58,13.02-6.58,17.91-2.35,11.87-7.34,23.15-10.12,35.01-1.38-3.95-1.15-6.2-1.44-10.51-.56-8.27,1.24-13.66,6.36-19.85.51.51,1.92-.93,3.34-2.87,1.52-3.3,3.18-6.31,2.57-10.4-.42-2.77-.69-3.25-.44-5.79.23-2.25.97-4.07.88-6.51,2.87-1.53,5.32-8.51,8.9-11.16,1.97,4.52-2.37,10.06-3.47,14.18Z" style="fill: #454754; stroke-width: 0px;"/>
      <path d="m789.86,709.05c-5.6-5.12-11.96-14.81-19.43-15.68-.81-.1-1.43-.1-1.93-.05.55.92,1.08,1.78,1.58,2.5,1.44,2.1,4.53,4.73,2.28,8.02-4.52,5.16,4.39,10.18,6.88,11.89,3.23,2.21,5.61,5.19,8.52,7.89,2.79,2.59,4.06,1.62,7.48,2.63,5.39,1.59,3,8.89,4.76,14.14v-25.53c-.06.03-.11.06-.18.08-3.2,1.29-7.83-3.94-9.96-5.89Z" style="fill: #454754; stroke-width: 0px;"/>
      <path d="m639.54,650.04c.06.26.13.54.2.82.07-.5.14-.98.21-1.45-.13.22-.27.43-.4.63Z" style="fill: #454754; stroke-width: 0px;"/>
      <path d="m515.55,755.55c8.16-3.83,15.06-10.6,22.89-15.38,7.1-4.33,12.91-12.37,19.9-15.82.46,8.21-7.49,18.38-15.37,27.27,1.97-1.7,5.32-2.49,8.02-4.37,3.15-2.18,6.41-5.36,9.71-7.04-1.42,3.49-2.72,7.02-4.1,10.36-3.04,7.37-3.26,16.85-8.74,22.42-3.89,3.96-8.67,5.64-13.03,8.58-3.05,2.06-5.94,4.16-8.99,6.02,6.39,1.15,18.08-3.57,21.76-4.26,5-.94,17.56-5.12,22.01-3.06,1.94.89,2.93,2.78,3.72,4.83,1.25-1.79,2.41-3.69,3.92-5.17,2.93-2.9,6.66-4.35,9.85-6.78,5.36-4.09,6.31-8.31,9.63-14.19-1.06-.7,2.53-3.48,4.18-6.5,2.85-5.19,6.06-10.7,9.76-15.06-.13,6.29-1.44,12.07-3.83,17.7-3.26,7.7-5.61,16.13-10.11,22.95-5.5,8.35-11.05,10.59-18.86,14.27-.12.06-.25.12-.38.18.64.34,1.39.54,2.31.54,9.2.02,20.98-20.58,26.31-27.7,3.2-4.27,7.22-6.58,11.29-8.72.29-6.21,5.43-13.01,5.79-18.92.3-5.03.68-8.38,2.39-12.89,1.14-3,1.5-9.93,4.74-10.88.63-.42,1.74-1.9,3.1-3.65,1.39-4.31,2.88-8.39,4.03-11.76,3.65-10.76,7.21-21.84,12.94-31.11,1.92-3.11,3.72-6.41,4.67-9.71-.45.29-.9.6-1.35.94-2.95,2.3-5.11,4.48-7.14,7.84-1.05,1.74-1.6,3.03-3.03,4.43-1.95,1.9-4.33,2.99-6.27,4.91-1.55,1.54-2.64,3.73-4.23,5.14.02-.67.15-1.4.34-2.15-.1.14-.19.29-.29.43-1.52,2.24-3.41,6.51-5.43,7.92-1.65-3.34,1.78-7.21,3.37-9.55,2.17-3.2,4.01-6.59,5.87-10.01.13-1.34.08-2.83-.33-4.41.89-1.07,1.54-3.11,2.04-5.46-.82,1.61-1.73,3.22-2.75,4.88-4.84,7.82-10.35,20.89-15.99,27.3-8.04,9.15-23.72,8.97-34.17,14.69-9.42,5.16-18.1,11.87-26.79,18.2-19.97,14.55-41.61,17.33-61.15,33.36-3.9,3.2-15.2,11.86-25.8,18.98,1.33-.33,2.63-.7,3.9-1.15,13.36-4.78,26.71-12.34,39.69-18.44Zm114.59-58.44c.53,5.13-2.63,10.77-4.46,15.16-1.48,3.55-3.63,6.46-5.28,9.86-1.18,2.44-2.73,4.88-4.1,7.36-.55,1.78-1.23,3.45-2.27,4.89.58-1.66,1.39-3.29,2.27-4.89,1.05-3.4,1.61-7.18,3.16-10.43,2.49-5.22,1.98-10.54,6.09-14.7,1.14-1.45,2.18-4.87,4.58-7.26Zm-16.43,3.75c1.21.17,5.23-2.87,6.64-5.52.1-.22.22-.44.31-.67-.08.22-.19.45-.31.67-1.5,3.26-4.18,5.6-5.77,8.85-1.58,3.21-1.42,2.8-4.06,4.45-2.74,1.71-6.51,7.79-9.72,6.9-1.29-5.6,10.38-11.53,12.92-14.68Zm-7.23,21.72c-2.08,1.14-3.95,6.7-5.08,11.22-1.17,4.67-3.3,8.56-4.75,13.02-1.53,4.68-2.6,9.64-3.47,14.55.51-2.93.03-5.38-.23-8.25-.4-4.42.82-7.2,1.66-11.3.42-2.07.05-4.24.6-6.26.86-3.14,3.59-5.61,5.47-7.71,1.5-1.68,3.54-5.19,5.8-5.26Zm-36.85,6.35c2.23-4.01,7.38-4.71,10.23-8.08.98-1.15.94-1.97,2.18-2.84,2.22-1.54,5.92-1.16,8.35-2.16,2.09-.86,3.94-2.99,5.97-3.42-1.11,1.41-4.69,4.96-7.5,7.78-3.62,3.64-7.09,6.41-11.46,8.37-2.33,1.04-7.36,3.06-9.08,6.26-.13.7-.31,1.39-.6,2.03.03-.73.26-1.4.6-2.03.37-2.01.34-4.16,1.31-5.91Z" style="fill: #454754; stroke-width: 0px;"/>
      <path d="m387.79,839.41c.08.06.16.11.24.17,1.48-2.42,3.82-5.14,6.15-7.6-2.48,2.16-4.66,4.6-6.39,7.43Z" style="fill: #454754; stroke-width: 0px;"/>
      <path d="m795.03,698.84c1.14,1.01,3.21,3,4.97,5.27v-8.51c-5.36-3.08-8.63-3.53-12.44-10.4,1.33,5.9.78,7.7,7.47,13.63Z" style="fill: #454754; stroke-width: 0px;"/>
      <path d="m525.59,772.41c-1.9,2.74-3.68,5.82-4.12,8.61.61-.74,1.17-1.49,1.64-2.26,1.14-1.88,1.79-4.13,2.48-6.35Z" style="fill: #454754; stroke-width: 0px;"/>
      <path d="m778.96,667.07c.97,2.39,2.48,4.57,3.92,6.8-1.93-6.09-3.29-12.09-6-17.93-.44-.15-.91-.36-1.37-.6.95,3.81,1.81,7.7,3.45,11.73Z" style="fill: #454754; stroke-width: 0px;"/>
      <path d="m800,809.73c-1.61-2.38-3.39-4.56-4.84-6.11-2.5-2.67-5.35-3.93-7.96-6.23-1.86-1.64-3.07-3.64-5.17-4.98-2.88-1.83-5.81-3.93-7.92-6.78-.26,12.89-1.16,25.39-9.08,35.59-7.31,9.41-18.72,13.95-27.72,5.13-9.57-9.37-12.74-30.6-16.84-43.87-1.49-4.83-3.01-11.27-4.78-17.83,0,0,0,.02,0,.03-3.14-8.41-6-15.88-10.69-22.64-3.35,9.12-8.37,17.72-11.16,27.48-3.33,11.63-5.37,24.69-12.95,33.55-5.97,6.97-15.68,13.2-24.03,14.68-7.12,1.26-5.55-.22-9.22-4.78-2.42-3-2.88-5.92-6.37-8.22-4.06-2.68-8.27-.29-11.87-2.12-4.53-2.31-4.79-4.9-6.25-12.2-3.11-15.62,3.96-27.22,6.53-42.28-2.41,2.82-5.27,4.68-8.25,6.32-.91,2.42-2.06,4.54-3.62,5.62-.37-1.13-.47-2.3-.41-3.48-4.07,2.13-8.09,4.45-11.29,8.72-5.33,7.12-17.11,27.72-26.31,27.7-.92,0-1.67-.2-2.31-.54-6.14,2.92-18.43,9.41-19.7,17.87-.05-3.95.94-7.86,2.65-11.22,2.93-5.76,8.09-7.84,11.82-12.59.37-.47.73-.97,1.08-1.47-.79-2.05-1.78-3.93-3.72-4.83-4.46-2.06-17.01,2.12-22.01,3.06-3.67.69-15.37,5.41-21.76,4.26-1.53.93-3.11,1.81-4.77,2.57-9.72,4.47-19.05,12.63-23.63,24.36.21-4.87-.7-10.95,2.03-15.63,3.96-6.8,11.33-7.12,16.39-12.12,1.7-1.68,3.85-3.64,5.58-5.73.44-2.79,2.22-5.87,4.12-8.61.48-1.53.98-3.05,1.69-4.43,2.25-4.39,8.68-14.01,13.69-14.11.34-.38.69-.76,1.03-1.15.26-.41.6-.77.98-1.1,7.88-8.9,15.82-19.06,15.37-27.27-6.99,3.45-12.8,11.49-19.9,15.82-7.83,4.78-14.73,11.55-22.89,15.38-12.98,6.1-26.34,13.66-39.69,18.44-1.27.45-2.57.82-3.9,1.15-6.09,1.49-12.65,2.03-18.09,5.08-13.6,7.64-25.21,24.27-37.2,35.11-5.29,4.78-11.3,5.65-16.49,10.67-1.37,1.33-3.68,3.52-6,5.98-2.33,2.46-4.67,5.18-6.15,7.6-.86,1.41-1.44,2.71-1.53,3.79-3.14,1.72-3.91,1.48-5.01,2.5,6.04,8.66,18.52,5.94,26.95,5.96,45.51.09,91.03-3.71,136.58-3.86,50.31-.17,100.7,4.16,151.05,4.57,26.62.22,53.09,5.34,79.78,5.5,8.14.05,16.16.39,24.14.99v-49.3Z" style="fill: #3b506d; stroke-width: 0px;"/>
      <path d="m775.51,655.34c-1.81-.92-3.68-2.33-4.45-2.89-5.26-3.8-8.48-9.82-11.65-15.96.29,2.09.47,4.24.48,6.55.01,10.56-1.8,20.95-2.98,31.37.03-6.34-.67-12.01-1.5-18.24-.39-2.97-.93-6-1.13-8.99-.22-3.32-1.12-4.89-1.76-7.79-1.17-5.33,1.4-10.12.38-14.5-3.19-4.88-6.97-9.11-11.81-11.2-1.95-.84-4.01-1.52-6.06-1.26-1.25,2.71-2.4,5.63-3.55,7.73-3.36,6.13-3.12,7.6-2.51,14.15.56,5.95-3,10.97-3.01,16.85,0,4.59,2.44,7.87,3,12.28-3.44-5.43-4.42-13.83-6.67-20.14-1.76-4.94-3.63-8.18-2.88-13.21-2.05.23-1.73-.53-3.54-2.91-5.51-7.27-12.29,3.87-13.55,10.69-.82,4.46-1.17,5.84-3.55,9.47-1.88,2.87-1.93,4.97-2.79,8.04-.73,2.59-3.04,4.78-4.53,6.73-2.96,3.9-5.68,7.94-8.33,12.15-2.74,4.36-5.43,8.76-8.22,13.06.08-5.06,3.31-10.97,4.88-15.85,1.86-5.77,2.12-9.99,2.85-15.78.9-7.09,6.54-11.54,6.35-19.09-.08-3.1-.51-6.25-.59-9.39-3.1,2.13-4.99,7.15-7.23,10.47-2.69,3.98-7.21,11.37-11.03,13.75-3.78,2.36-8.31,2.97-12.55,4.91-.05.1-.1.2-.16.31,0-.07,0-.15-.01-.22-.8.37-1.58.8-2.35,1.29-.95,3.3-2.75,6.6-4.67,9.71-5.73,9.26-9.29,20.35-12.94,31.11-1.14,3.37-2.63,7.45-4.03,11.76,1.78-2.28,3.98-5.01,6.08-6.44-.69,3.49-1.07,6.94-2.19,10.31-1.72,5.16-4.88,8.83-7,13.66-.34.77-.66,1.56-.99,2.36,0,.6.01,1.2.05,1.77,4.45-.63,27.15-40.61,30.28-16.25.99,7.7-4.39,15.04-6,22.38-1.27,5.81-4.26,15.72-3.69,21.36,4.44-1.09,9.6-8.33,12.89-12.32,7.74-9.4,13.96-21.02,21.39-30.86,2.94-3.89,7.75-12.32,12.7-17.05-.19-1.72-.27-3.43.03-5.09,1.02-5.54,3.61-10.65,4.08-16.5-.02,3.94,0,7.89-1.49,12.2-.32,2.9-.58,5.09-.12,7.36,1.17-.77,2.34-1.26,3.48-1.35,4.29-.33,12.51,6.2,16.12,8.82,2.28,1.65,7.29,7.65,9.88,6.01,5.86-3.7.92-19.18,6.47-23.36,10.71-8.07,18.34,19.94,27.7,12.41.75-.6,1.29-1.19,1.71-1.76-1.6-4.64-3.79-9.1-3.71-13.92,2.79,1.42,5.3,5.8,7.42,9.3.5-.05,1.12-.05,1.93.05,7.46.88,13.83,10.57,19.43,15.68,2.13,1.95,6.77,7.18,9.96,5.89.06-.03.12-.05.18-.08v-10.74c-1.76-2.28-3.83-4.26-4.97-5.27-6.69-5.94-6.14-7.73-7.47-13.63-.32-1.41-.74-3.06-1.4-5.06-.75-2.26-1.98-4.29-3.27-6.28-1.44-2.23-2.95-4.4-3.92-6.8-1.64-4.03-2.5-7.92-3.45-11.73Z" style="fill: #cdcdcd; stroke-width: 0px;"/>
      <path d="m636.9,667.6c.65-1.19,1.3-2.38,1.98-3.57,1.92-3.39,2.66-4.9,2.88-9.1.21-4.03.6-5.72,2.72-9.04,3.69-5.79,9.4-15.52,15.2-18.58,3.76-.61,8.21-3.24,12.01-4.36.42-2.43.61-4.9,1.26-7.33,1.21-4.52,3.35-8.11,5.82-11.72,2.52-3.68,4.93-7.57,8.16-10.4,2.43-2.13,5.16-3.81,7.69-5.75.55-.63,1.1-1.25,1.65-1.87,1.42-1.61,4.23-5.65,6.56-4.13-1.81,0-4.24,2.72-6.79,4.87-.46.39-.94.77-1.42,1.14-3.57,4.12-6.8,8.54-6.09,14.85.43,3.81,2.24,7.19,1.47,11.09-.68,3.45-3.15,7.44-4.63,10.58-3.15,6.65-9.81,9.98-14.99,14.06-1.81,1.42-4.51,3.59-6.98,6.16-1.87,4.04-3.83,8-5.81,11.84,4.24-1.94,8.77-2.55,12.55-4.91,3.82-2.39,8.34-9.78,11.03-13.75,2.24-3.32,4.13-8.34,7.23-10.47.08,3.14.51,6.28.59,9.39.19,7.55-5.45,11.99-6.35,19.09-.73,5.78-.99,10-2.85,15.78-1.57,4.88-4.8,10.79-4.88,15.85,2.79-4.3,5.48-8.7,8.22-13.06,2.65-4.21,5.37-8.25,8.33-12.15,1.48-1.95,3.8-4.14,4.53-6.73.87-3.07.91-5.17,2.79-8.04,2.38-3.63,2.72-5.01,3.55-9.47,1.26-6.82,8.04-17.96,13.55-10.69,1.81,2.38,1.49,3.14,3.54,2.91.11-.72.27-1.48.5-2.29,2.15-7.7,9.21-11.76,12.37-18.77,1.69-3.77,2.74-7.86,5.64-10.58-.1,3.19-.03,6.41.57,8.17-1.26,1.38-2.39,3.52-3.45,5.82,2.05-.26,4.12.42,6.06,1.26,4.85,2.09,8.62,6.32,11.81,11.2-.36-1.54-1.15-3.03-2.72-4.48-4.1-3.79-6.82-6.98-4.87-13.8-1.1-1.46-.23-6.79-.32-11.3,1.78,3.67,1.02,8.55,3.29,12.36,2.57,4.32,5.43,7.13,6.98,12.4,1.69,5.75,3.35,10.81,4.14,16.42,3.18,6.14,6.4,12.16,11.65,15.96.77.56,2.64,1.96,4.45,2.89.47.24.93.44,1.37.6,1.04.36,1.96.41,2.47-.16,3.4-3.75-6.37-19.81-8.17-22.98-2.64-4.63-3.75-10.06-5.41-15.27-1.52-4.77-4.06-8.08-5.95-12.54-1.65-3.91-3.37-8.31-4.55-12.44-1.03-3.62-1.03-6.76-3.83-8.96-2.97-2.34-4.52-4.32-6.81-7.85-2.35-3.62-4.1-6-7.33-8.39-4.91-3.64-5.55-3.1-10.21,2.3-2.76,3.19-9.04,11.35-12.88,7.2-1.78-1.92-4.4-9.54-7.64-9.04-1.18.18-3.59,3.84-4.57,4.87-2.6,2.73-5.25,5.49-8.08,7.86-5.87,4.92-10.04,10.69-15.19,16.56-6.17,7.03-14.35,9.18-18.98,18.08-3.94,7.57-10.51,9.81-15.1,16.48-3.02,4.39-3.31,10.07-4.32,15.44-.13.67-.25,1.47-.37,2.33-.07.47-.14.95-.21,1.45-.31,2.19-.66,4.66-1.13,6.87-.5,2.35-1.14,4.4-2.04,5.46.41,1.58.46,3.08.33,4.41Zm70.13-88.25c.35,2.41-.55,3.77-1.52,5.7-2.18,4.31-3.29,7.45-2.7,12.63.68,6.04-.66,10.36-1.38,16.32-.68,5.56-1.42,10.62-3.44,15.72-.79,1.99-2.15,4.11-2.47,6.25.02-4.53.39-8.66,1.38-13.07,1.37-6.08.39-10.3-.2-16.42-.57-5.9-4.86-11.43-1.85-16.67,1.97-3.42,5.85-7.1,9.35-7.69.38.48,1.43-1.63,2.85-2.77Z" style="fill: #5c5e6e; stroke-width: 0px;"/>
      <path d="m663.39,644.5c1.97-4.26,3.85-8.61,5.56-13-.51.51-1.02,1.01-1.53,1.47-5.09,4.66-9.61,9.68-14.15,15.09-2.52,3-5.41,4.98-7.43,8.59-1.63,2.91-2.68,6.24-4.33,9.15-2.52,4.46-5.31,8.81-8.14,13-.18.75-.32,1.48-.34,2.15,1.59-1.4,2.68-3.59,4.23-5.14,1.93-1.92,4.32-3.02,6.27-4.91,1.44-1.4,1.98-2.69,3.03-4.43,2.03-3.36,4.19-5.54,7.14-7.84.44-.34.89-.65,1.35-.94.77-.49,1.55-.91,2.35-1.29-.32-4.17,2.62-8.42,5.98-11.92Z" style="fill: #5c5e6e; stroke-width: 0px;"/>
      <path d="m704.18,582.12c-3.5.59-7.38,4.27-9.35,7.69-3.02,5.24,1.27,10.77,1.85,16.67.59,6.12,1.57,10.34.2,16.42-.99,4.4-1.35,8.53-1.38,13.07.32-2.14,1.68-4.26,2.47-6.25,2.02-5.1,2.76-10.16,3.44-15.72.72-5.96,2.07-10.27,1.38-16.32-.59-5.18.52-8.32,2.7-12.63.98-1.93,1.87-3.29,1.52-5.7-1.42,1.14-2.47,3.26-2.85,2.77Z" style="fill: #cdcdcd; stroke-width: 0px;"/>
      <path d="m645.84,656.65c2.02-3.61,4.91-5.59,7.43-8.59,4.53-5.41,9.05-10.43,14.15-15.09.51-.47,1.02-.96,1.53-1.47.62-1.61,1.23-3.21,1.81-4.83.43-1.22.71-2.46.92-3.72-3.8,1.11-8.25,3.74-12.01,4.36-5.8,3.06-11.51,12.78-15.2,18.58-2.11,3.32-2.51,5.01-2.72,9.04-.22,4.21-.96,5.71-2.88,9.1-.67,1.19-1.33,2.38-1.98,3.57-1.87,3.42-3.7,6.81-5.87,10.01-1.59,2.34-5.03,6.2-3.37,9.55,2.02-1.41,3.91-5.68,5.43-7.92.1-.14.19-.29.29-.43,2.83-4.19,5.62-8.54,8.14-13,1.65-2.91,2.7-6.24,4.33-9.15Z" style="fill: #cdcdcd; stroke-width: 0px;"/>
      <path d="m616.32,729.49c1.37-2.49,2.91-4.92,4.1-7.36,1.65-3.41,3.8-6.31,5.28-9.86,1.82-4.39,4.99-10.02,4.46-15.16-2.39,2.39-3.44,5.8-4.58,7.26-4.12,4.16-3.61,9.47-6.09,14.7-1.55,3.25-2.1,7.03-3.16,10.43Z" style="fill: #cdcdcd; stroke-width: 0px;"/>
      <path d="m616.32,729.49c-.88,1.6-1.69,3.22-2.27,4.89,1.04-1.44,1.72-3.11,2.27-4.89Z" style="fill: #cdcdcd; stroke-width: 0px;"/>
      <path d="m577.42,728.58c4.38-1.96,7.84-4.73,11.46-8.37,2.81-2.83,6.39-6.37,7.5-7.78-2.03.44-3.88,2.56-5.97,3.42-2.43,1-6.13.62-8.35,2.16-1.24.86-1.2,1.69-2.18,2.84-2.86,3.37-8,4.07-10.23,8.08-.97,1.75-.94,3.9-1.31,5.91,1.72-3.21,6.75-5.22,9.08-6.26Z" style="fill: #cdcdcd; stroke-width: 0px;"/>
      <path d="m568.34,734.84c-.34.63-.56,1.31-.6,2.03.29-.64.47-1.33.6-2.03Z" style="fill: #cdcdcd; stroke-width: 0px;"/>
      <path d="m594.62,741.82c-.84,4.1-2.06,6.88-1.66,11.3.26,2.87.74,5.32.23,8.25.87-4.91,1.95-9.87,3.47-14.55,1.45-4.46,3.58-8.35,4.75-13.02,1.14-4.52,3-10.08,5.08-11.22-2.26.07-4.3,3.58-5.8,5.26-1.88,2.1-4.62,4.57-5.47,7.71-.55,2.03-.18,4.2-.6,6.26Z" style="fill: #ccc3ab; stroke-width: 0px;"/>
      <path d="m610.52,708.64c2.64-1.65,2.48-1.24,4.06-4.45,1.59-3.24,4.27-5.59,5.77-8.85-1.41,2.65-5.43,5.69-6.64,5.52-2.53,3.15-14.21,9.08-12.92,14.68,3.21.88,6.98-5.19,9.72-6.9Z" style="fill: #cdcdcd; stroke-width: 0px;"/>
      <path d="m620.36,695.34c.12-.23.23-.45.31-.67-.09.23-.2.45-.31.67Z" style="fill: #cdcdcd; stroke-width: 0px;"/>
      <path d="m646.38,729.24c-4.36,2.67-.58,9.73.01,13.47.68,4.31-.7,9.18.21,13.15,1.72-6.82.32-13.72,2.32-20.59,1.29-4.42.72-9.02,1.75-13.3-1.68,3.28-3.92,6.6-4.29,7.27Z" style="fill: #cdcdcd; stroke-width: 0px;"/>
      <path d="m678.17,745c.09,2.44-.65,4.26-.88,6.51-.26,2.54.02,3.01.44,5.79.61,4.09-1.05,7.1-2.57,10.4.76-1.04,1.53-2.22,2.17-3.33-.09.52-.2,1.04-.3,1.55,3.99-4.89,4.87-11.49,6.58-17.91,1.1-4.12,5.45-9.66,3.47-14.18-3.58,2.65-6.03,9.64-8.9,11.16Z" style="fill: #cdcdcd; stroke-width: 0px;"/>
      <path d="m731.19,729.93c-2.02-1.17-1.96-.39-2.44-3.45-.17-1.11-.02-2.42-.01-3.55-1.16-2.68-3.77-7-6.33-6.95,1.26,2.39,3.02,3.87,3.46,7.03.59,4.28.03,6.41,2.32,10.12,1.74,2.82,3.74,5.55,5.51,8.36,1.66,2.62,6.1,6.52,6.8,9.98-.55-4.43-1.18-9.49-2.48-13.6-1.52-4.76-3.33-5.92-6.83-7.94Z" style="fill: #cdcdcd; stroke-width: 0px;"/>
      <path d="m740.5,751.47c.03.26.07.52.1.78,0-.26-.04-.52-.1-.78Z" style="fill: #cdcdcd; stroke-width: 0px;"/>
      <path d="m709.32,702c-.35,1.23-.68,2.55-1.1,3.42-3.57,1.92-2.48,5.26-1.43,8.4.69,1.27,1.49,2.45,2.28,3.64-.47-5.31-.35-10.78.25-15.46Z" style="fill: #cdcdcd; stroke-width: 0px;"/>
      <path d="m775.5,730.56c-.72-.42-1.42-.9-2.11-1.4.61.94,1.3,1.5,2.11,1.4Z" style="fill: #cdcdcd; stroke-width: 0px;"/>
      <path d="m758.51,707.17c2.91,8.32,8.02,17.01,14.88,22-1.91-2.93-3.05-9.57-4.46-11.47-3.32-4.48-4.71-10.81-10.41-10.53Z" style="fill: #cdcdcd; stroke-width: 0px;"/>
      <path d="m675.15,767.7c-1.43,1.94-2.84,3.38-3.34,2.87-5.12,6.19-6.92,11.58-6.36,19.85.29,4.31.07,6.56,1.44,10.51,2.78-11.86,7.77-23.13,10.12-35.01.1-.52.21-1.03.3-1.55-.63,1.11-1.4,2.29-2.17,3.33Z" style="fill: #ccc3ab; stroke-width: 0px;"/>
      <path d="m739.44,795.71c0,.57,0,1.14,0,1.73.06-.57.05-1.15,0-1.73Z" style="fill: #cdcdcd; stroke-width: 0px;"/>
      <path d="m727.63,763.96c.09,2.15,1.5,4.08,2.27,5.96,1.19,2.91,1.84,5.91,2.74,8.97,1.52,5.16,6.39,11.06,6.8,16.81.01-2.46.07-4.83.42-7.3.86-6.09-.31-9.56-2.45-14.68-1.36-.41-6.75-9.69-9.79-9.76Z" style="fill: #cdcdcd; stroke-width: 0px;"/>
      <path d="m789.36,788.42c-1.4-2.28-2.25-5.52-4.03-7.37-1.76-1.84-4.36-3.28-6.35-4.78-4.16-3.14-7.02-7.08-10.36-11.41-1.93-2.5-4.91-4.65-5.77-8.99-.6,3.85,2.99,6.02,4.74,8.55,3,4.34,3.08,8.51,3.64,13.83.32,2.97,1.39,5.37,2.88,7.4,2.1,2.85,5.04,4.95,7.92,6.78,2.1,1.34,3.32,3.35,5.17,4.98,2.61,2.3,5.47,3.56,7.96,6.23,1.45,1.55,3.23,3.72,4.84,6.11v-7.18c-1.44-2.37-3.08-4.55-4.71-6.48-2.11-2.49-4.17-4.79-5.93-7.67Z" style="fill: #cdcdcd; stroke-width: 0px;"/>
      <path d="m752.52,639.38c.64,2.91,1.54,4.48,1.76,7.79.2,2.99.73,6.02,1.13,8.99.83,6.24,1.52,11.9,1.5,18.24,1.18-10.42,2.99-20.81,2.98-31.37,0-2.3-.18-4.46-.48-6.55-.79-5.61-2.45-10.67-4.14-16.42-1.55-5.27-4.41-8.09-6.98-12.4-2.27-3.81-1.51-8.69-3.29-12.36.09,4.51-.78,9.83.32,11.3-1.95,6.82.76,10.01,4.87,13.8,1.57,1.45,2.36,2.94,2.72,4.48,1.01,4.38-1.56,9.17-.38,14.5Z" style="fill: #4b4d5c; stroke-width: 0px;"/>
      <path d="m722.29,643.28c2.24,6.31,3.22,14.71,6.67,20.14-.56-4.41-3.01-7.69-3-12.28.01-5.88,3.57-10.9,3.01-16.85-.61-6.54-.85-8.02,2.51-14.15,1.15-2.1,2.3-5.02,3.55-7.73,1.06-2.3,2.19-4.44,3.45-5.82-.59-1.76-.67-4.98-.57-8.17-2.9,2.72-3.95,6.81-5.64,10.58-3.15,7.01-10.22,11.07-12.37,18.77-.23.81-.39,1.57-.5,2.29-.75,5.03,1.12,8.27,2.88,13.21Z" style="fill: #4b4d5c; stroke-width: 0px;"/>
      <path d="m547.88,772.98c5.47-5.56,5.7-15.05,8.74-22.42,1.38-3.34,2.68-6.87,4.1-10.36-3.3,1.68-6.57,4.86-9.71,7.04-2.71,1.88-6.05,2.68-8.02,4.37-.38.33-.72.69-.98,1.1-.23.35-.4.74-.52,1.17-.17-.02-.34-.03-.51-.02-5.01.1-11.44,9.72-13.69,14.11-.71,1.38-1.21,2.9-1.69,4.43-.7,2.22-1.34,4.47-2.48,6.35-.46.77-1.02,1.52-1.64,2.26-1.73,2.09-3.88,4.05-5.58,5.73-5.06,5-12.43,5.32-16.39,12.12-2.73,4.68-1.82,10.77-2.03,15.63,4.59-11.72,13.91-19.88,23.63-24.36,1.66-.76,3.23-1.64,4.77-2.57,3.05-1.86,5.94-3.96,8.99-6.02,4.36-2.94,9.13-4.62,13.03-8.58Z" style="fill: #4b4d5c; stroke-width: 0px;"/>
      <path d="m629.33,730.16c.32-.8.65-1.59.99-2.36,2.12-4.83,5.27-8.5,7-13.66,1.12-3.36,1.5-6.81,2.19-10.31-2.1,1.43-4.3,4.16-6.08,6.44-1.36,1.74-2.48,3.22-3.1,3.65-3.23.95-3.6,7.88-4.74,10.88-1.71,4.51-2.09,7.86-2.39,12.89-.36,5.91-5.49,12.71-5.79,18.92-.06,1.19.05,2.35.41,3.48,1.55-1.08,2.7-3.2,3.62-5.62,1.18-3.11,1.96-6.71,2.72-9.16,1.51-4.91,3.23-10.32,5.18-15.16Z" style="fill: #4b4d5c; stroke-width: 0px;"/>
      <path d="m596.75,778.03c4.49-6.82,6.84-15.25,10.11-22.95,2.39-5.63,3.7-11.41,3.83-17.7-3.69,4.36-6.9,9.86-9.76,15.06-1.66,3.02-5.25,5.8-4.18,6.5-3.32,5.87-4.27,10.09-9.63,14.19-3.19,2.43-6.92,3.88-9.85,6.78-1.5,1.49-2.67,3.38-3.92,5.17-.35.5-.7,1-1.08,1.47-3.73,4.75-8.9,6.83-11.82,12.59-1.7,3.36-2.7,7.26-2.65,11.22,1.28-8.46,13.56-14.95,19.7-17.87.13-.06.26-.12.38-.18,7.81-3.68,13.36-5.93,18.86-14.27Z" style="fill: #4b4d5c; stroke-width: 0px;"/>
      <path d="m715.97,754.24c.39-8.19,4.25-17.22.2-25.06-1.52-2.94-3.53-4.86-4.95-8.01-.61-1.35-1.37-2.55-2.15-3.73-.79-1.19-1.59-2.37-2.28-3.64-.35-.64-.67-1.3-.95-2.02-1.62-4.27-2.68-6.82-4.9-10.75-.79-1.41-1.26-2.66-1.51-3.89-.47-2.27-.2-4.46.12-7.36,1.49-4.31,1.47-8.25,1.49-12.2-.46,5.85-3.06,10.96-4.08,16.5-.3,1.65-.22,3.37-.03,5.09.22,1.95.57,3.9.7,5.77.29,4.27.14,8.59.13,12.88,0,7.45.04,15.28,4.5,20.63.98,1.17,1.88,2.37,2.73,3.59,4.69,6.76,7.55,14.23,10.69,22.64,0,0,0-.02,0-.03.6-2.99.12-7.08.28-10.42Z" style="fill: #4b4d5c; stroke-width: 0px;"/>
      <path d="m795.24,726.24c-3.42-1.01-4.68-.04-7.48-2.63-2.91-2.7-5.3-5.68-8.52-7.89-2.49-1.7-11.4-6.73-6.88-11.89,2.25-3.28-.84-5.92-2.28-8.02-.5-.73-1.03-1.59-1.58-2.5-2.12-3.5-4.63-7.88-7.42-9.3-.08,4.82,2.11,9.28,3.71,13.92.76,2.21,1.39,4.46,1.59,6.81.3,3.68.12,4.44,1.81,7.43,1.37,2.42,2.06,4.92,3.22,7.49,2.1,4.68,5.28,4.88,8.65,7.61,3.45,2.79,4.74,7.66,8.28,10.5,3.07,2.46,7.85,4.31,11.65,6.98v-4.37c-1.76-5.25.63-12.55-4.76-14.14Z" style="fill: #4b4d5c; stroke-width: 0px;"/>
      <path d="m702.83,581.75c-2.34-1.52-5.14,2.53-6.56,4.13-.55.62-1.1,1.24-1.65,1.87.48-.37.96-.74,1.42-1.14,2.55-2.15,4.98-4.88,6.79-4.87Z" style="fill: #4b4d5c; stroke-width: 0px;"/>
      <path d="m657.41,656.41c0,.07,0,.15.01.22.05-.1.1-.2.16-.31,1.98-3.83,3.94-7.79,5.81-11.84-3.36,3.5-6.3,7.75-5.98,11.92Z" style="fill: #4b4d5c; stroke-width: 0px;"/>
      <path d="m668.95,631.5c-1.71,4.39-3.58,8.74-5.56,13,2.47-2.57,5.18-4.74,6.98-6.16,5.18-4.08,11.84-7.42,14.99-14.06,1.49-3.14,3.95-7.13,4.63-10.58.77-3.91-1.04-7.29-1.47-11.09-.71-6.31,2.52-10.74,6.09-14.85-2.53,1.94-5.26,3.63-7.69,5.75-3.23,2.82-5.64,6.72-8.16,10.4-2.47,3.61-4.62,7.21-5.82,11.72-.65,2.43-.84,4.9-1.26,7.33-.22,1.26-.49,2.5-.92,3.72-.58,1.61-1.19,3.22-1.81,4.83Z" style="fill: #4b4d5c; stroke-width: 0px;"/>
    </g>
    <g>
      <g>
        <path d="m659.01,856.48c-7.23-4.26-18.36-10.68-24.52-16.27-6.64-6.03-8.74-12.92-16.92-17.43-19.85-10.95-44.87-6.22-52.34-35.36-10.1,1.52-27.42,9.55-36.87,15.45-7.9,4.94-14.27,15.33-23.38,17.87-4.76,1.33-9.55-.58-14.04.5-14.89,3.58-23.98,15.73-40.3,11.93-12.42-2.89-20.83-5.29-34.16-5.29-11.99,0-26.08,1.97-37.91.09-15.3-2.42-16.22-11.99-27.25-22.57-8.99-8.63-16.12-8.88-23.68-17.99-7.89-9.51-11.65-16.86-20.83-23.88-8.93-6.82-12.74-17-21.22-23.21-2.83-2.07-8.04-.14-11.68-2.76-3.88-2.8-3.72-7.26-7.1-10.33-5.95-5.4-7.41-5.22-11.43-12.2-3.6-6.26-1.46-12.01-8.44-16.16-2.14-1.27-4.01-1.99-5.68-2.29-7.3-4.71-16.31-7.36-23.8-10.16-15.62-5.86-51.56-83.58-71.77-75.42-9.12,3.69-17.85-20.18-27.16-15.98-8.65,3.9-10.43,37.73-18.08,42.68-11.44,7.42-16.03,20.79-20.8,33.02-2.81,7.2-18.77,64.02-20.9,71.54-3.15,11.11-2.39,23.01-4.56,34.27-3.27,17.02-8.06,23.46-9.26,40.86-1.04,15.07-9.22,13.29-17.33,25.73-2.76,4.24-33.43,20.4-26.62,25.83,3.17,2.53,62.29,14.14,66.77,13.86,5.61-.35,11.26-.2,16.89-.2,16.38,0,38.57-.58,53.94-8.71,48.23,2.15,96.83,3.25,144.95,3.77,48.89.52,97.74-3.91,146.61-1.67,41.54,1.9,82.99,2.94,124.57,2.94,44.26,0,88.35-2.06,132.55-2.62,13.35-.17,30.07-3.35,44.72-4.81-5.48-.82-10.95-2.22-16.54-3.31-18.07-3.51-40.19-2.16-56.44-11.72Z" style="fill: #253e5e; stroke-width: 0px;"/>
        <path d="m749.91,871.01c-5.24-.46-11.38-.15-17.92.5,5.89.88,11.81,1.1,17.92-.5Z" style="fill: #253e5e; stroke-width: 0px;"/>
      </g>
      <path d="m133.82,832.37c6.47-4.2,8.97-18.04,17.18-18.3,12.27-.39,26.27,23.4,39.71,26.12,11.01,2.23,22.37-4.13,34.1-3.08,10.72.96,15.89,5.64,22.97-5.69,7.86-12.6,7.35-20.12,24.19-12.43,6.91,3.16,10.26,6.92,18.05,8.29,3.43.6,10.26,1.17,13.56.09,3.27-1.07,7.92-6.61,9.83-6.99,9.48-1.88,14.54,8.31,22.96,13.23,6.31,3.69,15.87,6.91,23.46,8.61,10.46,2.34,21.97,4.11,32.78,4.68,10.69.57,23.26,5.51,33.17,3.52,7.16-1.44,12.43-7.37,18.95-9.3,6.33-1.87,14,.32,20.61-.28,10.47-.95,20.28-5.26,30.79-6.05,11.73-.88,22.64-1.22,33.54-4.77,5.55-1.81,15.45-8.07,21.29-7.45,6.18.65,10.99,10.1,17.12,11.75,11.53,3.11,19.87-7.3,30.79-1.88,11.37,5.65,21.83,7.89,33.15,11.46,10.54,3.32,17.46,10.84,27.6,14.4,11.75,4.13,24.95,5.05,37.37,5.54,21.81.86,41.51,11.03,63.79,13.56-8.07,7.31-23.07,2.3-32.75,1.07-21.04-2.66-42.38-2.53-63.55-2.52-42.99,0-86.38,2.16-129.31,4.24-114.6,5.56-229.69-.62-344.34,4.3-20.61.89-41.52.16-62.16-.07-8.63-.1-29.13,2.23-36.11-3.87,3.35-6.31,11.53-10.19,16.1-16.5,2.96-4.08,4.96-9.38,7.87-13.63,5.81-8.5,12.34-12.91,17.3-18.06Z" style="fill: #395165; stroke-width: 0px;"/>
      <path d="m101.3,864.57c16.99,3.01,19.47-26.21,40.2-18.43,6.63,2.49,11.43,8.14,18.36,10.36,9.87,3.16,17.74-2.81,25.68-1.58,6.74,1.04,10.84,6.69,17.29,8.38,8.66,2.27,20.82-.39,29.39-1.51,25.76-3.37,51.81-2.88,77.89-2.85,18.48.02,34.38,1.72,52.14,4.41,17.09,2.59,35.9-2.82,53.12-2.99,35.79-.36,71.31-3.65,107.14-2.86,57.04,1.26,115.12,2.73,171.02,13.82,23.36,4.63,59.32,12.93,82.64,6.24-28.56,14.67-73.01,2.84-104.07,2.54-54.78-.54-108.94,9-163.65,11.35-60.54,2.6-121.55-.72-181.88-4.58-52.46-3.36-103.71,1.11-156.02,1.7-18.99.21-39.2,1.72-57.89.6-10.12-.61-18.99-3.1-28.67-5.13,5.96-4.24,8.71-11.89,17.31-19.45Z" style="fill: #4f5c67; stroke-width: 0px;"/>
    </g>
    <g>
      <path d="m498.76,1065.46c15.94-21.09,24.63-27.65,51.26-29.28,30.17-1.85,31.45-26.86,46-48.65,7.3-10.93,20.51-23.41,33.77-26.19,14.5-3.04,25.73,6.63,38.5,6.78,6.91.08,7.39-5.6,14.21-9.39,7.77-4.32,15.25-1.93,23.3-4.63,8.39-2.82,14.66-8.5,20.73-14.61,11.98-12.07,15.83-11.93,31.55-16.11,10.63-2.82,20.1-8.59,25.6-18.31,2.73-4.83,6.97-39.2,16.32-48.57v-116.51c-5.39-12.71-13.54-27.23-22.87-37.07-4.95,11.55-11.88,22.29-18.99,32.53-11.81-5.73-9.89-24.23-13.57-35.5-3.43-10.53,1.22-26.48-9.47-33.94-2.09,24.55-13.32,37.07-25.14,56.59-5.7,9.41-5.85,19.21-7.88,29.51-2.07,10.49-8.79,14.71-12.38,24.08-3.02,7.86,2.24,19.42-1.35,26.34-4.8,9.23-14.15,4-22.56,6.36-17.43,4.88-18.81,27.94-31.02,39.61-10.81,10.33-26.47,23.38-38.38,31.48-11.47,7.8-26.96,11.28-38.96,19.04-15.82,10.23-19.47,25.75-29.55,40.84-23.35,34.95-52.25,40.76-88.94,54.36-43.15,15.99-85.78,35.76-128.43,53.26-28.84,11.84-48.7,36.43-78.71,44.13-7.73,1.98-22.38,4.1-34.36,8.39h234.26c23.74-10.37,52.03-14.64,67.06-34.54Z" style="fill: #253e5e; stroke-width: 0px;"/>
      <path d="m758.08,923.38c-15.72,4.18-19.56,4.03-31.55,16.11-6.07,6.11-12.34,11.79-20.73,14.61-8.04,2.7-15.53.31-23.3,4.63-6.82,3.79-7.3,9.47-14.21,9.39-12.77-.15-24-9.82-38.5-6.78-13.26,2.78-26.46,15.26-33.77,26.19-14.55,21.78-15.83,46.79-46,48.65-26.64,1.63-35.33,8.19-51.26,29.28-15.03,19.9-43.32,24.17-67.06,34.54h155.68c2.52-3.62,4.83-7.29,6.67-11.03,9.69-19.66,12.4-39.12,37.25-33.19,22.03,5.26,36.8,6.35,52.7-11.53,13.78-15.5,22.71-34.96,33.37-52.51,11.38-18.73,11.27-14.72,30.95-14.01,22.77.82,15.25-19.87,30.22-30.35,7.63-5.34,4.43.83,10.8,7.01,5.26,5.1,1.82,9.37,8.89,4.6.67-.45,1.25-1.08,1.77-1.83v-100.65c-9.36,9.37-13.59,43.74-16.32,48.57-5.5,9.72-14.96,15.49-25.6,18.31Z" style="fill: #395165; stroke-width: 0px;"/>
      <path d="m798.23,958.98c-7.07,4.77-3.64.5-8.89-4.6-6.37-6.18-3.17-12.35-10.8-7.01-14.97,10.48-7.45,31.17-30.22,30.35-19.68-.71-19.57-4.72-30.95,14.01-10.66,17.55-19.59,37.01-33.37,52.51-15.9,17.88-30.67,16.79-52.7,11.53-24.85-5.93-27.56,13.53-37.25,33.19-1.84,3.74-4.15,7.41-6.67,11.03h212.63v-142.85c-.52.75-1.11,1.38-1.77,1.83Z" style="fill: #4f5c67; stroke-width: 0px;"/>
    </g>
  </g>
</svg>