<svg width="34" height="34" viewBox="0 0 34 34" fill="none" xmlns="http://www.w3.org/2000/svg">
<g id="icons8_light 1">
<path id="Vector" d="M17.0529 30.9982C17.5045 30.9982 17.8498 30.6529 17.8498 30.2014L17.8498 28.4219C19.2842 28.0766 20.3203 26.7749 20.3203 25.2608L20.3203 23.1358C20.3203 21.9671 20.7984 20.8515 21.6484 20.0811C23.2953 18.6202 24.1185 16.5219 23.9592 14.3438C23.6935 10.8906 20.9046 8.1549 17.4249 7.91583C17.2655 7.91583 17.1329 7.88886 16.9735 7.88886C15.1142 7.88886 13.3611 8.60636 12.033 9.93448C10.7315 11.2892 10.0139 13.0421 10.0139 14.9015C10.0139 16.8671 10.8641 18.7796 12.3516 20.0811C13.2547 20.9046 13.786 22.047 13.786 23.2157L13.786 25.2608C13.786 26.8015 14.8482 28.0766 16.256 28.4219L16.256 30.2014C16.256 30.6529 16.6014 30.9982 17.0529 30.9982ZM17.0799 26.9345C16.6815 26.4829 16.4158 25.8983 16.4158 25.2608L16.4158 23.5877L18.7266 23.5877L18.7266 25.2608C18.7266 26.164 17.983 26.9079 17.0799 26.9345ZM18.8329 22.0204L15.2205 22.0204C14.9549 20.8517 14.3173 19.7623 13.3876 18.9123C12.2454 17.9029 11.5811 16.4421 11.5811 14.9015C11.5811 13.4671 12.139 12.1127 13.1749 11.1033C14.2905 10.0143 15.7783 9.42979 17.3455 9.53604C20.0018 9.69542 22.1795 11.8203 22.3654 14.4766C22.4982 16.1766 21.8344 17.7701 20.5859 18.9123C19.6828 19.7092 19.072 20.8251 18.8329 22.0204ZM28.1562 15.6983C28.6078 15.6983 28.9531 15.353 28.9531 14.9015C28.9531 14.4499 28.6078 14.1046 28.1562 14.1046L26.908 14.1046C26.4565 14.1046 26.1111 14.4499 26.1111 14.9015C26.1111 15.353 26.4565 15.6983 26.908 15.6983L28.1562 15.6983ZM7.09198 15.6983C7.54354 15.6983 7.88886 15.353 7.88886 14.9015C7.88886 14.4499 7.51698 14.1046 7.09198 14.1046L5.84375 14.1046C5.39219 14.1046 5.04688 14.4499 5.04688 14.9015C5.04688 15.353 5.39219 15.6983 5.84375 15.6983L7.09198 15.6983ZM24.0027 8.71271C24.2053 8.71271 24.4109 8.63292 24.5703 8.47354L25.4471 7.59677C25.7658 7.27802 25.7658 6.77354 25.4471 6.48135C25.2877 6.32198 25.0748 6.24219 24.8889 6.24219C24.6764 6.24219 24.4905 6.32198 24.3311 6.48135L23.4549 7.35761C23.1361 7.67636 23.1361 8.18136 23.4549 8.47354C23.601 8.63292 23.8002 8.71271 24.0027 8.71271ZM9.99725 8.71271C10.1998 8.71271 10.399 8.63292 10.5451 8.47354C10.8639 8.15479 10.8639 7.64979 10.5451 7.35761L9.66885 6.48136C9.50948 6.32198 9.29708 6.24219 9.11114 6.24219C8.89865 6.24219 8.71229 6.32198 8.55292 6.48136C8.23417 6.80011 8.23417 7.30459 8.55292 7.59677L9.42969 8.47354C9.58906 8.63292 9.79471 8.71271 9.99725 8.71271ZM17 5.81729C17.4516 5.81729 17.7969 5.47198 17.7969 5.02042L17.7969 3.79865C17.7969 3.34708 17.4516 3.00177 17 3.00177C16.5484 3.00177 16.2031 3.34708 16.2031 3.79865L16.2031 5.02042C16.2031 5.47198 16.5484 5.81729 17 5.81729Z" fill="white" fill-opacity="0.3"/>
</g>
</svg>
